<?xml version="1.0" encoding="UTF-8" standalone="no"?>
<svg
   xmlns:dc="http://purl.org/dc/elements/1.1/"
   xmlns:cc="http://creativecommons.org/ns#"
   xmlns:rdf="http://www.w3.org/1999/02/22-rdf-syntax-ns#"
   xmlns:svg="http://www.w3.org/2000/svg"
   xmlns="http://www.w3.org/2000/svg"
   xmlns:sodipodi="http://sodipodi.sourceforge.net/DTD/sodipodi-0.dtd"
   xmlns:inkscape="http://www.inkscape.org/namespaces/inkscape"
   inkscape:version="1.0 (4035a4fb49, 2020-05-01)"
   sodipodi:docname="Ferreteria-Fernandez-logo.svg"
   id="svg80"
   preserveAspectRatio="xMidYMid meet"
   viewBox="0 0 183.48756 56.999998"
   height="76"
   width="244.65009"
   version="1.0">
  <metadata
     id="metadata86">
    <rdf:RDF>
      <cc:Work
         rdf:about="">
        <dc:format>image/svg+xml</dc:format>
        <dc:type
           rdf:resource="http://purl.org/dc/dcmitype/StillImage" />
        <dc:title></dc:title>
      </cc:Work>
    </rdf:RDF>
  </metadata>
  <defs
     id="defs84" />
  <sodipodi:namedview
     inkscape:current-layer="svg80"
     inkscape:window-maximized="1"
     inkscape:window-y="-8"
     inkscape:window-x="-8"
     inkscape:cy="32.568497"
     inkscape:cx="108.44011"
     inkscape:zoom="3.1541747"
     units="px"
     showgrid="false"
     id="namedview82"
     inkscape:window-height="705"
     inkscape:window-width="1366"
     inkscape:pageshadow="2"
     inkscape:pageopacity="0"
     guidetolerance="10"
     gridtolerance="10"
     objecttolerance="10"
     borderopacity="1"
     bordercolor="#666666"
     pagecolor="#ffffff" />
  <g
     transform="matrix(0.33073821,0,0,0.33073821,-4.6303349,-6.5678852)"
     id="g968">
    <g
       transform="matrix(0.1,0,0,-0.1,0,214)"
       fill="#000000"
       stroke="none"
       id="g78">
      <path
         d="m 605,1908 c -23,-28 -27,-39 -22,-81 5,-58 28,-85 80,-94 31,-5 40,-1 68,26 25,26 29,35 19,44 -10,9 -14,9 -17,-1 -17,-45 -81,-57 -107,-20 -37,53 -8,138 47,138 13,0 32,-9 42,-20 21,-23 35,-26 35,-7 0,26 -36,47 -77,47 -34,0 -46,-6 -68,-32 z"
         id="path2" />
      <path
         d="m 835,1906 c -51,-121 -64,-166 -49,-166 8,0 20,14 25,30 10,26 16,30 50,30 33,0 41,-4 54,-30 9,-16 22,-30 30,-30 12,0 12,8 -4,48 -68,167 -80,181 -106,118 z m 55,-73 c 0,-8 -12,-13 -30,-13 -35,0 -34,-3 -14,46 l 17,39 13,-30 c 7,-16 13,-36 14,-42 z"
         id="path4" />
      <path
         d="m 997,1922 c -34,-38 -13,-74 52,-92 49,-13 68,-34 51,-55 -19,-22 -77,-19 -92,5 -15,24 -43,27 -34,4 3,-9 6,-17 6,-20 0,-2 14,-11 31,-20 42,-21 94,-11 116,22 15,24 15,27 -3,51 -12,16 -39,32 -67,40 -34,10 -47,19 -47,32 0,35 62,43 82,11 12,-19 38,-28 38,-12 0,4 -7,18 -16,30 -20,29 -93,31 -117,4 z"
         id="path6" />
      <path
         d="m 1213,1908 c -6,-18 -22,-63 -37,-100 -20,-52 -23,-68 -12,-68 7,0 19,14 26,30 11,26 17,30 52,30 35,0 41,-4 51,-30 7,-17 19,-30 28,-30 15,0 11,15 -23,100 -44,110 -66,127 -85,68 z m 57,-79 c 0,-5 -13,-9 -30,-9 -35,0 -34,-3 -14,46 l 16,38 14,-33 c 8,-18 14,-37 14,-42 z"
         id="path8" />
      <path
         d="m 551,1664 c -162,-43 -287,-149 -356,-299 -40,-85 -55,-154 -55,-243 0,-206 123,-407 305,-496 123,-60 -31,-56 2355,-56 1936,0 2193,2 2245,15 246,65 415,286 415,546 0,85 -17,154 -60,244 -60,126 -170,226 -305,277 l -60,23 -2215,2 c -1912,2 -2222,0 -2269,-13 z m 4461,-45 c 216,-45 378,-233 394,-458 19,-251 -159,-486 -400,-530 -84,-15 -4328,-15 -4412,0 -243,44 -421,282 -400,536 18,216 172,398 379,449 71,17 4358,20 4439,3 z"
         id="path10" />
      <path
         d="M 700,1115 V 690 h 45 45 v 150 150 h 85 85 v 40 40 h -85 -85 v 190 190 h 1390 1390 v 45 45 H 2135 700 Z"
         id="path12" />
      <path
         d="M 1110,1030 V 690 h 155 155 v 45 44 l -112,3 -113,3 v 100 100 l 88,3 87,3 v 42 42 h -87 -88 l -3,103 -3,102 h 116 115 v 45 45 h -155 -155 z"
         id="path14" />
      <path
         d="M 1550,1030 V 690 h 40 39 l 3,118 3,117 h 34 c 34,0 36,-3 99,-117 l 64,-118 h 40 39 l -65,124 c -36,68 -66,125 -66,128 0,3 13,8 29,11 131,27 177,253 72,358 -47,47 -91,59 -223,59 h -108 z m 233,236 c 46,-19 66,-46 72,-97 12,-91 -46,-146 -160,-151 l -60,-3 -3,133 -3,132 h 61 c 33,0 75,-6 93,-14 z"
         id="path16" />
      <path
         d="M 2010,1030 V 690 h 40 40 l 2,259 3,259 146,-257 146,-256 41,-3 42,-3 v 340 341 h -40 -40 l -2,-255 -3,-254 -145,254 -145,255 h -42 -43 z"
         id="path18" />
      <path
         d="m 2708,1293 c -14,-43 -67,-196 -116,-340 l -91,-263 h 44 c 43,0 44,1 77,63 l 35,62 119,3 119,3 33,-66 32,-65 h 45 c 25,0 45,2 45,4 0,3 -52,154 -115,337 -63,183 -115,334 -115,336 0,2 -19,3 -43,3 h -43 z m 110,-203 c 18,-69 35,-135 38,-147 6,-23 5,-23 -81,-23 -65,0 -86,3 -83,13 3,6 22,76 43,155 21,79 41,139 45,135 4,-4 21,-64 38,-133 z"
         id="path20" />
      <path
         d="M 3090,1030 V 690 h 55 55 l 2,207 3,207 119,-207 119,-207 h 53 54 v 340 340 h -49 -50 l 6,-222 5,-223 -24,35 c -14,19 -78,119 -143,223 l -118,187 h -43 -44 z"
         id="path22" />
      <path
         d="M 3660,1031 V 690 h 118 c 74,0 137,5 166,14 70,21 129,75 168,154 31,63 33,73 33,172 0,92 -3,112 -26,160 -35,74 -67,110 -131,145 -50,28 -60,30 -190,33 l -138,4 z m 241,239 c 61,-17 102,-52 132,-109 23,-46 27,-67 27,-136 0,-101 -31,-172 -92,-213 -35,-22 -53,-27 -134,-30 l -94,-4 v 251 251 h 63 c 34,0 78,-5 98,-10 z"
         id="path24" />
      <path
         d="M 4230,1030 V 690 h 155 155 v 45 45 h -110 -110 v 105 105 h 110 110 v 40 40 h -110 -110 v 105 105 h 110 110 v 45 45 h -155 -155 z"
         id="path26" />
      <path
         d="m 4630,1325 v -45 h 120 c 81,0 120,-4 120,-11 0,-6 -56,-116 -125,-243 C 4631,814 4620,789 4620,742 v -52 h 180 180 v 45 45 h -135 c -74,0 -135,3 -135,6 0,3 61,118 135,254 111,204 135,256 135,289 v 41 h -175 -175 z"
         id="path28" />
      <path
         d="m 5475,886 c -88,-39 -105,-144 -35,-211 24,-23 41,-30 88,-33 102,-7 168,49 159,136 -10,94 -118,149 -212,108 z m 139,-25 c 54,-36 69,-87 41,-141 -35,-68 -138,-83 -198,-30 -41,35 -50,72 -32,117 28,66 128,94 189,54 z"
         id="path30" />
      <path
         d="m 5461,773 c 1,-30 4,-38 6,-20 5,30 23,27 23,-4 0,-29 19,-23 27,9 l 7,27 7,-30 c 6,-26 7,-23 8,18 1,52 -12,62 -27,20 l -10,-28 -11,28 c -17,42 -31,32 -30,-20 z"
         id="path32" />
      <path
         d="m 5571,773 c 1,-27 4,-38 6,-25 5,27 19,28 33,2 6,-11 15,-20 21,-20 6,0 6,6 0,18 -7,13 -7,22 1,30 16,16 -8,42 -38,42 -22,0 -24,-4 -23,-47 z m 49,17 c 0,-5 -9,-10 -20,-10 -11,0 -20,5 -20,10 0,6 9,10 20,10 11,0 20,-4 20,-10 z"
         id="path34" />
      <path
         d="m 2385,423 c -32,-8 -45,-23 -45,-54 0,-31 7,-37 65,-59 28,-11 40,-21 40,-35 0,-30 -49,-33 -68,-4 -10,13 -22,19 -31,16 -41,-16 7,-67 62,-67 50,0 82,23 82,60 0,33 -21,50 -83,70 -21,6 -36,17 -34,23 5,15 67,22 67,8 0,-6 9,-11 20,-11 22,0 27,22 8,37 -17,14 -59,21 -83,16 z"
         id="path36" />
      <path
         d="m 3172,423 c -12,-3 -30,-15 -38,-29 -15,-22 -15,-26 0,-49 9,-14 33,-29 56,-35 44,-12 62,-36 39,-51 -23,-14 -48,-10 -66,11 -21,24 -43,26 -43,5 0,-29 38,-55 80,-55 27,0 47,7 60,20 40,40 19,84 -50,104 -25,7 -45,19 -45,27 0,17 43,25 58,10 13,-13 47,-15 47,-2 0,12 -29,41 -40,41 -5,0 -14,2 -22,4 -7,2 -23,1 -36,-1 z"
         id="path38" />
      <path
         d="m 3882,423 c -12,-3 -30,-15 -38,-29 -15,-22 -15,-26 0,-49 9,-14 33,-29 56,-35 45,-12 57,-25 40,-45 -18,-22 -57,-18 -70,5 -14,26 -40,26 -40,1 0,-48 101,-70 140,-31 40,40 19,84 -50,104 -25,7 -45,19 -45,27 0,17 43,25 58,10 13,-13 47,-15 47,-2 0,12 -29,41 -40,41 -5,0 -14,2 -22,4 -7,2 -23,1 -36,-1 z"
         id="path40" />
      <path
         d="m 5004,422 c -41,-6 -69,-49 -69,-104 0,-42 4,-53 28,-74 35,-30 89,-32 117,-4 22,22 25,36 9,45 -6,4 -19,-2 -30,-14 -26,-27 -54,-27 -73,1 -47,67 18,153 76,101 14,-12 21,-14 30,-5 25,25 -35,62 -88,54 z"
         id="path42" />
      <path
         d="M 1700,319 V 218 l 61,4 c 79,6 99,27 99,102 0,73 -25,96 -103,96 h -57 z m 111,55 c 7,-9 14,-34 14,-56 0,-44 -22,-68 -62,-68 -22,0 -23,4 -23,70 v 70 h 29 c 16,0 35,-7 42,-16 z"
         id="path44" />
      <path
         d="M 1900,320 V 220 h 75 c 60,0 75,3 75,15 0,12 -13,15 -55,15 -54,0 -55,0 -55,30 0,29 1,30 50,30 38,0 50,4 50,15 0,11 -12,15 -50,15 -47,0 -50,2 -50,25 0,24 3,25 55,25 42,0 55,3 55,15 0,12 -15,15 -75,15 h -75 z"
         id="path46" />
      <path
         d="M 2090,320 V 220 h 70 c 56,0 70,3 70,15 0,11 -12,15 -50,15 h -50 v 85 c 0,78 -2,85 -20,85 -19,0 -20,-7 -20,-100 z"
         id="path48" />
      <path
         d="m 2530,340 c 0,-67 3,-83 20,-100 20,-20 83,-27 107,-12 21,13 33,61 33,128 0,57 -2,64 -20,64 -18,0 -20,-7 -20,-74 0,-82 -12,-103 -55,-92 -24,6 -25,9 -25,86 0,73 -2,80 -20,80 -18,0 -20,-7 -20,-80 z"
         id="path50" />
      <path
         d="m 2730,320 c 0,-93 1,-100 20,-100 17,0 20,7 20,39 0,22 5,43 12,47 11,7 55,-34 75,-71 6,-10 19,-15 32,-13 22,3 22,3 -8,45 -29,41 -30,43 -12,53 28,15 35,47 17,75 -15,23 -23,25 -86,25 h -70 z m 124,54 c 10,-25 -2,-34 -45,-34 -35,0 -39,3 -39,25 0,22 4,25 39,25 26,0 41,-5 45,-16 z"
         id="path52" />
      <path
         d="M 2940,320 V 220 h 75 c 60,0 75,3 75,15 0,12 -13,15 -55,15 -54,0 -55,0 -55,30 0,29 1,30 50,30 38,0 50,4 50,15 0,11 -12,15 -50,15 -46,0 -50,2 -50,24 0,23 4,25 52,28 30,2 53,8 56,16 3,9 -16,12 -72,12 h -76 z"
         id="path54" />
      <path
         d="m 3300,405 c 0,-10 10,-15 30,-15 h 30 v -85 c 0,-78 2,-85 20,-85 18,0 20,7 20,85 v 85 h 30 c 20,0 30,5 30,15 0,12 -16,15 -80,15 -64,0 -80,-3 -80,-15 z"
         id="path56" />
      <path
         d="M 3490,320 V 220 h 75 c 60,0 75,3 75,15 0,12 -13,15 -55,15 -54,0 -55,0 -55,30 0,29 1,30 50,30 38,0 50,4 50,15 0,11 -12,15 -50,15 -47,0 -50,2 -50,25 0,24 3,25 55,25 42,0 55,3 55,15 0,12 -15,15 -75,15 h -75 z"
         id="path58" />
      <path
         d="m 4126,330 c -20,-50 -36,-95 -36,-100 0,-20 31,-9 42,15 9,20 18,25 50,25 31,0 41,-5 50,-25 13,-29 54,-36 44,-7 -56,150 -72,182 -92,182 -18,0 -28,-16 -58,-90 z m 78,-7 c 6,-20 4,-23 -18,-23 -29,0 -31,6 -15,47 11,30 19,24 33,-24 z"
         id="path60" />
      <path
         d="M 4470,319 V 218 l 61,4 c 78,6 99,27 99,100 0,71 -29,98 -105,98 h -55 z m 109,57 c 7,-8 11,-36 9,-63 -3,-41 -7,-49 -29,-57 -47,-16 -59,-3 -59,62 0,32 3,62 7,65 12,12 60,7 72,-7 z"
         id="path62" />
      <path
         d="M 4670,320 V 220 h 75 c 60,0 75,3 75,15 0,12 -13,15 -55,15 -54,0 -55,0 -55,30 0,29 1,30 50,30 38,0 50,4 50,15 0,11 -12,15 -50,15 -47,0 -50,2 -50,25 0,24 3,25 55,25 42,0 55,3 55,15 0,12 -15,15 -75,15 h -75 z"
         id="path64" />
      <path
         d="m 5210,413 c 0,-5 14,-50 32,-100 27,-76 36,-93 53,-93 16,0 27,18 56,101 35,95 36,100 16,97 -15,-2 -26,-19 -41,-65 -12,-34 -24,-65 -28,-68 -3,-4 -17,25 -29,64 -17,53 -27,71 -41,71 -10,0 -18,-3 -18,-7 z"
         id="path66" />
      <path
         d="m 3680,240 c 0,-11 7,-20 15,-20 8,0 15,9 15,20 0,11 -7,20 -15,20 -8,0 -15,-9 -15,-20 z"
         id="path68" />
      <path
         d="m 4030,240 c 0,-11 7,-20 15,-20 8,0 15,9 15,20 0,11 -7,20 -15,20 -8,0 -15,-9 -15,-20 z"
         id="path70" />
      <path
         d="m 4310,240 c 0,-11 7,-20 15,-20 8,0 15,9 15,20 0,11 -7,20 -15,20 -8,0 -15,-9 -15,-20 z"
         id="path72" />
      <path
         d="m 5145,250 c -8,-14 3,-30 21,-30 8,0 14,9 14,20 0,21 -24,28 -35,10 z"
         id="path74" />
      <path
         d="m 5390,240 c 0,-11 7,-20 15,-20 8,0 15,9 15,20 0,11 -7,20 -15,20 -8,0 -15,-9 -15,-20 z"
         id="path76" />
    </g>
    <path
       style="fill:#ffff00;fill-rule:evenodd;stroke:none;stroke-width:5.86096;paint-order:stroke fill markers"
       d="M 185.59498,201.839 C 88.67453,201.37974 80.115374,201.23094 75.330882,199.92201 45.192767,191.67689 24.398401,162.4236 26.439766,131.14252 c 0.62567,-9.5875 2.135223,-15.43139 6.278335,-24.30513 8.206015,-17.575673 22.566103,-29.954693 41.684533,-35.933876 3.079361,-0.963053 20.848725,-1.282347 105.958626,-1.903947 121.50306,-0.887397 335.31225,-0.924046 424.33377,-0.07273 l 63.60981,0.608299 6.4415,2.18876 c 10.09433,3.429958 17.61273,8.104044 25.39454,15.787437 10.05366,9.92652 15.84981,20.435537 18.94553,34.350167 1.88149,8.45696 1.26279,24.12974 -1.26632,32.07779 -7.08669,22.27084 -24.12847,39.47872 -45.08672,45.52618 -6.02682,1.73902 -6.28629,1.74384 -129.63518,2.40532 -135.28537,0.72549 -198.87949,0.71983 -357.50321,-0.0318 z M 105.88142,173.66638 V 153.5367 h 11.27263 11.27262 v -5.63632 -5.63631 H 117.15405 105.88142 V 117.30326 92.342453 h 185.19311 185.19311 v -6.441499 -6.4415 H 284.63303 92.998426 v 57.168306 57.16831 h 6.441499 6.441495 z m 83.7395,13.68819 v -6.4415 h -8.73558 c -4.80457,0 -11.50775,-0.23433 -14.89597,-0.52075 l -6.16039,-0.52074 v -12.76485 -12.76485 l 3.82464,-0.004 c 2.10355,-0.002 7.3574,-0.23811 11.67522,-0.52404 l 7.85058,-0.52001 v -5.91746 -5.91746 h -11.55465 -11.55464 l -0.52317,-7.37039 c -0.28775,-4.05371 -0.52317,-10.03223 -0.52317,-13.28559 v -5.91521 h 15.29857 15.29856 v -6.4415 -6.4415 h -20.93488 -20.93487 v 45.89568 45.89569 h 20.93487 20.93488 z m 28.18728,-3.82464 c 0.003,-5.64638 0.23671,-12.7119 0.51902,-15.70116 l 0.51331,-5.43501 h 2.92516 c 1.60884,0 3.6666,0.51933 4.57281,1.15406 0.90621,0.63473 5.24426,7.69333 9.64011,15.68577 l 7.99246,14.53171 5.43501,0.0154 c 2.98926,0.008 5.43502,-0.32262 5.43502,-0.73573 0,-0.41311 -3.77561,-7.92234 -8.39023,-16.68717 -4.61463,-8.76483 -8.2473,-16.16732 -8.07262,-16.44997 0.17469,-0.28265 2.04804,-0.99647 4.163,-1.58627 5.32418,-1.48475 11.42303,-7.64749 13.9236,-14.06946 2.18432,-5.60977 2.69548,-17.8152 0.98216,-23.45217 -2.53866,-8.35243 -9.94168,-15.37961 -18.09267,-17.17414 -2.33219,-0.51345 -10.67177,-1.14263 -18.53241,-1.39816 l -14.29208,-0.46462 v 46.01654 46.01654 h 5.63631 5.63632 l 0.006,-10.26614 z m 61.2913,-8.45447 c 0.0565,-10.29633 0.32829,-25.3719 0.60389,-33.50125 l 0.50111,-14.78064 18.74891,32.99309 18.74891,32.99309 3.70742,0.50816 c 2.03908,0.27948 4.74386,0.50816 6.0106,0.50816 h 2.30319 V 147.90038 102.0047 h -5.63631 -5.63632 l -0.10472,11.87652 c -0.0576,6.53208 -0.32935,21.42328 -0.60389,33.09155 l -0.49917,21.21504 -18.87032,-33.09155 -18.87032,-33.09156 h -5.8892 -5.88918 v 45.89568 45.89569 h 5.63631 5.63631 z m 65.75032,17.46234 c 0.98804,-0.69204 3.22633,-3.86247 4.97398,-7.04539 5.01528,-9.13408 3.19833,-8.35019 20.60256,-8.88865 l 15.33942,-0.47458 4.35845,8.83344 4.35846,8.83345 h 5.8193 c 3.20062,0 6.02541,-0.33349 6.27732,-0.74109 0.65327,-1.05702 -29.77131,-89.50301 -31.08155,-90.35586 -0.59748,-0.38891 -3.4046,-0.61367 -6.23804,-0.49947 l -5.15171,0.20765 -5.83961,17.31153 c -5.23365,15.51512 -24.14609,70.5479 -25.11134,73.07075 -0.59707,1.56059 9.41298,1.34504 11.69276,-0.25178 z m 82.4014,-19.8779 c 0.055,-11.6249 0.32676,-23.54249 0.60389,-26.48355 l 0.50388,-5.34738 15.20057,26.48355 15.20057,26.48355 h 7.54597 7.54598 V 147.90038 102.0047 h -7.30095 c -6.56757,0 -7.26111,0.14154 -6.90437,1.40908 0.21811,0.77499 0.6311,13.90961 0.91775,29.18804 l 0.52119,27.77897 -3.53792,-5.23372 c -1.94585,-2.87854 -10.34565,-16.01316 -18.66623,-29.18804 L 423.75323,102.0047 h -5.95029 -5.9503 v 45.89568 45.89569 h 7.64928 7.64928 z m 91.15973,20.35875 c 12.59272,-1.32481 21.7654,-7.33084 28.52127,-18.67499 5.31569,-8.92585 5.9846,-12.2307 5.68983,-28.11165 l -0.2642,-14.23369 -3.6098,-7.11518 c -4.57686,-9.02135 -9.88709,-14.45437 -18.09024,-18.5086 -6.10259,-3.01606 -6.10592,-3.01666 -19.98075,-3.64476 -7.63243,-0.34552 -15.96057,-0.65001 -18.50697,-0.67664 l -4.62983,-0.0484 v 45.89568 45.89569 l 11.87652,-0.0143 c 6.53208,-0.008 15.07946,-0.35127 18.99417,-0.76311 z m 87.49186,-5.66408 v -6.4415 H 591.00685 576.11088 V 167.22488 153.5367 h 14.89597 14.89596 v -5.63632 -5.63631 H 591.00685 576.11088 V 128.57589 114.8877 h 14.89597 14.89596 v -6.45487 -6.45487 l -21.13617,0.21467 -21.13617,0.21467 -0.20794,45.69438 -0.20794,45.69439 h 21.3441 21.34412 z m 58.77868,0 v -6.4415 l -16.70763,-0.0123 c -9.18921,-0.006 -17.193,-0.31997 -17.78622,-0.69596 -1.29832,-0.82293 -1.74134,0.0968 14.20288,-29.48624 16.57969,-30.7621 19.42278,-36.9228 20.02738,-43.39734 l 0.49646,-5.31651 H 641.0449 617.17544 v 6.4415 6.4415 l 11.47392,0.007 c 6.31065,0.004 13.38427,0.23644 15.71914,0.51688 3.85213,0.46266 4.19677,0.66705 3.722,2.20726 -0.28777,0.93356 -6.55011,13.11091 -13.91632,27.06079 -17.62974,33.38662 -18.01187,34.26615 -18.45357,42.47363 l -0.35749,6.6428 h 24.65919 24.65918 z"
       id="path88"
       transform="scale(0.74999998)" />
    <path
       style="fill:#ffff00;fill-rule:evenodd;stroke:none;stroke-width:5.86096;paint-order:stroke fill markers"
       d="m 218.20024,138.84203 c -0.003,-5.86781 -0.24183,-13.71388 -0.53151,-17.43572 l -0.52669,-6.76699 7.9795,0.48621 c 10.26861,0.62568 13.70825,1.67813 17.33388,5.30375 7.77862,7.77862 5.64822,20.84212 -4.22472,25.90585 -3.18388,1.63297 -11.1827,3.15991 -16.60358,3.16955 l -3.42205,0.006 z"
       id="path913"
       transform="scale(0.74999998)" />
    <path
       style="fill:#ffff00;fill-rule:evenodd;stroke:none;stroke-width:5.86096;paint-order:stroke fill markers"
       d="m 361.03125,161.70961 -1.70497,-0.52363 1.81307,-6.4415 c 8.14102,-28.92356 8.96062,-31.55363 9.6257,-30.88855 0.18398,0.18397 2.51687,8.64462 5.1842,18.80144 3.63445,13.83945 4.60425,18.6229 3.8702,19.08933 -1.16784,0.74208 -16.34876,0.71211 -18.7882,-0.0371 z"
       id="path915"
       transform="scale(0.74999998)" />
    <path
       style="fill:#ffff00;fill-rule:evenodd;stroke:none;stroke-width:5.86096;paint-order:stroke fill markers"
       d="M 499.21548,148.02521 V 114.8877 l 5.43501,0.016 c 18.37288,0.0539 28.01272,5.39636 34.11366,18.90596 1.55657,3.44679 1.82158,5.41588 1.84217,13.68818 0.036,14.45423 -3.38731,23.24803 -11.08735,28.48129 -5.03636,3.42292 -7.91961,4.11014 -19.59309,4.66999 l -10.7104,0.51366 z"
       id="path917"
       transform="scale(0.74999998)" />
    <path
       style="fill:#ffff00;fill-rule:evenodd;stroke:none;stroke-width:5.86096;paint-order:stroke fill markers"
       d="m 499.21548,147.90443 c 0,-30.91804 0.0896,-33.01501 1.40908,-32.98961 0.77499,0.0149 5.17262,0.36631 9.77252,0.78089 13.76032,1.24019 21.81714,6.21109 27.16134,16.758 2.20852,4.35856 2.31751,5.07543 2.28734,15.04408 -0.0368,12.14748 -1.3493,17.71764 -5.43808,23.07839 -5.29653,6.94422 -10.75514,8.94457 -26.93903,9.87201 l -8.25317,0.47296 z"
       id="path919"
       transform="scale(0.74999998)" />
    <path
       style="fill:#ffff00;fill-rule:evenodd;stroke:none;stroke-width:5.86096;paint-order:stroke fill markers"
       d="m 732.31724,195.48708 c -6.94413,-3.22195 -10.79258,-9.68636 -9.22727,-15.49948 1.82438,-6.77523 8.3542,-11.15234 16.63717,-11.15234 4.18914,0 5.439,0.37438 8.73639,2.61686 5.01707,3.412 7.00471,7.06071 6.5686,12.05801 -0.90771,10.40132 -12.70465,16.62152 -22.71489,11.97695 z m 3.19245,-9.94418 1.10175,-2.61686 0.57625,2.29077 c 0.74339,2.95521 1.94843,1.29106 1.95032,-2.69337 0.003,-6.38688 -2.47257,-8.73246 -4.24909,-4.02593 -1.14723,3.03936 -1.58463,3.02862 -2.75332,-0.0676 -0.65191,-1.72709 -1.37985,-2.39882 -2.39079,-2.20618 -1.18387,0.2256 -1.49798,1.20905 -1.69323,5.30132 -0.14876,3.11785 0.0804,5.02433 0.60389,5.02433 0.46399,0 0.84361,-0.70328 0.84361,-1.56285 0,-0.85957 0.32437,-1.76333 0.72082,-2.00835 0.82411,-0.50933 1.69474,1.35912 1.69474,3.63705 0,2.49136 2.3955,1.77683 3.59505,-1.07233 z m 16.32869,1.61037 c -1.21036,-3.22067 -1.37811,-4.55105 -0.63199,-5.01218 2.34896,-1.45174 -0.0872,-5.36916 -3.92207,-6.30685 -3.66097,-0.89515 -4.90224,0.60188 -4.90224,5.91235 0,2.66507 0.35839,4.80279 0.80519,4.80279 0.44285,0 0.80518,-0.52212 0.80518,-1.16026 0,-2.34488 1.84416,-2.22398 3.77854,0.24771 1.92024,2.4536 4.82683,3.53727 4.06739,1.51644 z"
       id="path921"
       transform="scale(0.74999998)" />
  </g>
</svg>
