<?xml version="1.0" encoding="UTF-8" standalone="no"?>
<svg
   xmlns:dc="http://purl.org/dc/elements/1.1/"
   xmlns:cc="http://creativecommons.org/ns#"
   xmlns:rdf="http://www.w3.org/1999/02/22-rdf-syntax-ns#"
   xmlns:svg="http://www.w3.org/2000/svg"
   xmlns="http://www.w3.org/2000/svg"
   xmlns:sodipodi="http://sodipodi.sourceforge.net/DTD/sodipodi-0.dtd"
   xmlns:inkscape="http://www.inkscape.org/namespaces/inkscape"
   inkscape:version="1.0 (4035a4fb49, 2020-05-01)"
   sodipodi:docname="Madereria-Villalobos-logo.svg"
   id="svg54"
   preserveAspectRatio="xMidYMid meet"
   viewBox="0 0 234.27466 67.499998"
   height="90"
   width="312.36621"
   version="1.0">
  <metadata
     id="metadata60">
    <rdf:RDF>
      <cc:Work
         rdf:about="">
        <dc:format>image/svg+xml</dc:format>
        <dc:type
           rdf:resource="http://purl.org/dc/dcmitype/StillImage" />
        <dc:title></dc:title>
      </cc:Work>
    </rdf:RDF>
  </metadata>
  <defs
     id="defs58" />
  <sodipodi:namedview
     inkscape:current-layer="svg54"
     inkscape:window-maximized="1"
     inkscape:window-y="-8"
     inkscape:window-x="-8"
     inkscape:cy="111.41625"
     inkscape:cx="124.21468"
     inkscape:zoom="1.6844268"
     units="px"
     showgrid="false"
     id="namedview56"
     inkscape:window-height="705"
     inkscape:window-width="1366"
     inkscape:pageshadow="2"
     inkscape:pageopacity="0"
     guidetolerance="10"
     gridtolerance="10"
     objecttolerance="10"
     borderopacity="1"
     bordercolor="#666666"
     pagecolor="#ffffff" />
  <path
     id="path78"
     d="M 26.365397,60.071736 C 22.16943,55.994011 18.8519,52.34203 18.99311,51.956235 19.13433,51.570441 30.584672,39.757306 44.438326,25.70483 61.655238,8.2408319 70.015706,0.30412201 70.855688,0.62644934 71.88746,1.0223794 72.07536,3.434581 72.027019,15.663523 71.995342,23.674546 71.708242,30.890694 71.389006,31.699407 70.489761,33.977389 36.62334,67.50095 35.22942,67.49291 34.550187,67.48851 30.561376,64.149464 26.365397,60.071736 Z m 36.204911,0.01441 C 58.567331,56.008525 55.171119,52.327887 55.023183,51.906934 54.62723,50.780251 68.710255,37.601278 70.310161,37.601278 c 1.20709,0 1.391932,1.515021 1.599033,13.106289 0.234144,13.104869 -0.06619,16.792432 -1.367838,16.792432 -0.381098,0 -3.96806,-3.336228 -7.971048,-7.413845 z M 0.5763709,66.165036 C 0.25937345,65.848028 0,58.520499 0,49.881619 V 34.174573 L 9.0482214,25.350961 C 19.489587,15.168805 17.01122,15.102301 28.074479,25.861494 c 5.440748,5.291206 6.327803,6.517889 5.627327,7.78186 C 32.25117,36.260941 1.1785612,66.767215 0.5763709,66.165036 Z M 134.56625,61.004052 c -1.45214,-0.904562 -2.8744,-2.577635 -3.1606,-3.717936 -1.23323,-4.91356 1.68552,-8.395125 7.71614,-9.204001 2.64302,-0.354504 3.13549,-0.701372 2.80267,-1.974102 -0.33248,-1.271387 -1.18242,-1.544019 -4.81352,-1.544019 -4.10009,0 -4.40975,-0.137093 -4.40975,-1.952324 0,-2.174825 1.7241,-2.932914 6.71226,-2.951351 1.99007,-0.0077 3.73535,0.619818 5.09773,1.831888 1.92908,1.716247 2.07675,2.378573 2.14593,9.624931 0.10895,11.402012 0.263,10.688398 -2.28314,10.571162 -1.23895,-0.05701 -3.35848,0.135705 -4.71006,0.428345 -1.74639,0.378128 -3.22138,0.05614 -5.09766,-1.112593 z m 7.42004,-5.114215 c 0.638,-2.439779 0.0326,-3.134413 -2.73195,-3.134413 -2.73465,0 -3.59423,0.985342 -2.86468,3.283902 0.75174,2.368546 4.96759,2.255941 5.59663,-0.149489 z m 22.43605,5.499409 c -4.24736,-2.215519 -5.04048,-3.630999 -5.37761,-9.597352 -0.27536,-4.873247 -0.059,-6.005258 1.61866,-8.469579 3.113,-4.572598 10.44084,-4.908524 13.80411,-0.632815 1.32707,1.687107 1.64827,3.323056 1.64827,8.39532 0,5.489723 -0.23702,6.51577 -1.84307,7.978596 -3.98086,3.625844 -6.30575,4.174789 -9.85036,2.32583 z m 5.90007,-4.876162 c 0.5776,-0.695965 0.86245,-3.226265 0.71464,-6.348358 l -0.24571,-5.191161 -2.78112,-0.265556 c -1.67255,-0.159699 -3.0552,0.1668 -3.4688,0.819144 -1.22091,1.925674 -0.82228,9.459202 0.57443,10.855906 1.59919,1.599197 3.93876,1.657618 5.20656,0.130025 z m 16.2209,5.178054 c -0.79752,-0.464311 -2.22584,-0.597962 -3.17405,-0.297009 -1.0746,0.341069 -1.98933,0.128463 -2.42836,-0.564401 -0.38739,-0.611376 -0.70998,-7.056437 -0.71688,-14.322366 -0.009,-10.704387 0.2186,-13.4026 1.20575,-14.221853 2.12917,-1.767067 3.58576,-0.361089 3.85469,3.720733 l 0.25145,3.816617 3.99371,0.15496 c 3.23757,0.125625 4.36199,0.583099 5.93879,2.416243 1.68643,1.960592 1.94507,3.107632 1.94507,8.625969 0,5.556914 -0.23391,6.57773 -1.84306,8.043385 -3.70677,3.376202 -6.39658,4.159181 -9.02711,2.627722 z m 4.97234,-5.003827 c 0.55586,-0.55587 0.98298,-3.2185 0.98298,-6.127966 0,-4.760018 -0.14839,-5.182238 -1.98306,-5.642716 -4.23305,-1.062428 -4.9605,-0.330672 -5.22539,5.256321 -0.14773,3.115868 0.13729,5.644453 0.71466,6.340134 1.17397,1.414562 4.17559,1.509452 5.51081,0.174227 z m 14.49884,4.623101 c -4.1176,-2.11897 -5.286,-4.309915 -5.30621,-9.949945 -0.0217,-6.032792 0.95062,-8.505227 4.06889,-10.34724 6.89378,-4.072256 13.92451,0.890157 13.93097,9.832742 0.005,5.176438 -1.85936,8.69458 -5.53184,10.445854 -3.35671,1.600704 -4.08379,1.602593 -7.16181,0.01857 z m 6.28386,-4.9958 c 1.68873,-1.528281 2.07124,-7.510624 0.65003,-10.166188 -0.96105,-1.795737 -4.80292,-2.159032 -6.36048,-0.601458 -1.28795,1.287943 -1.26539,8.416759 0.0332,10.496149 1.23734,1.981267 3.65995,2.097127 5.67726,0.271497 z m 11.89604,5.333517 c -1.68779,-0.637676 -2.232,-1.336056 -2.04785,-2.627942 0.21412,-1.502057 0.79012,-1.759476 3.93695,-1.759476 3.08487,0 3.68614,-0.255747 3.68614,-1.567872 0,-0.947421 -1.13455,-2.187703 -2.86699,-3.134173 -3.77594,-2.062854 -4.91486,-3.653225 -4.91486,-6.863064 0,-1.888245 0.62099,-3.13946 2.15832,-4.348733 3.70514,-2.914455 10.43315,-1.809694 9.54983,1.568113 -0.33878,1.295469 -1.11324,1.649012 -3.61226,1.649012 -4.2195,0 -4.22206,1.89304 -0.006,4.044175 3.56336,1.817765 4.19699,2.929561 4.19699,7.363866 0,4.981154 -4.78644,7.676277 -10.08054,5.676094 z M 87.64253,60.116921 c -1.436505,-2.684114 -8.185643,-23.700255 -8.185643,-25.489242 0,-1.218514 0.456624,-1.577669 1.75941,-1.383838 0.967682,0.143961 2.030809,0.814676 2.362496,1.490469 1.522437,3.101778 2.491277,5.752896 4.116522,11.264407 0.963367,3.266984 2.049681,6.124209 2.414014,6.349385 0.364345,0.225178 1.280441,-1.710588 2.035779,-4.301691 0.755336,-2.591102 1.71132,-5.351177 2.12442,-6.133481 0.413088,-0.782314 0.751077,-1.998621 0.751077,-2.702899 0,-0.704277 0.562391,-2.368044 1.249751,-3.697262 2.018565,-3.903479 6.496624,-2.812599 4.690844,1.142715 -1.307772,2.864467 -6.759738,20.006029 -6.759738,21.253311 0,1.508151 -2.640763,3.857235 -4.336182,3.857235 -0.737098,0 -1.737338,-0.742099 -2.22275,-1.649109 z m 17.72162,0.396705 c -0.28261,-0.736452 -0.51383,-4.765567 -0.51383,-8.953583 0,-5.79678 -0.29573,-7.859995 -1.23882,-8.64269 -2.51853,-2.090192 2.20372,-4.450055 5.15608,-2.576665 0.78342,0.497112 0.99155,3.251583 0.81915,10.841108 -0.21947,9.661487 -0.31882,10.187179 -1.96993,10.422754 -1.02559,0.146332 -1.94958,-0.301139 -2.25265,-1.090924 z m 10.0597,-0.06433 c -1.7235,-2.072542 -2.1553,-26.661108 -0.49243,-28.041167 0.64858,-0.538286 1.77889,-0.748588 2.5118,-0.467359 1.1416,0.438077 1.35349,2.318065 1.47881,13.120421 0.0805,6.934997 0.17261,13.433422 0.20479,14.440935 0.0726,2.27298 -2.13159,2.836769 -3.70297,0.94717 z m 8.83074,-0.150973 c -1.17724,-1.300844 -1.38312,-3.487082 -1.38312,-14.687268 0,-11.560151 0.16695,-13.223011 1.37413,-13.686253 2.88435,-1.106827 3.40768,1.110233 3.65866,15.499671 0.20892,11.976855 0.0677,13.952628 -1.01189,14.160537 -0.69006,0.132898 -1.87708,-0.446116 -2.63778,-1.286699 z m 26.89835,-0.949093 c -0.95183,-1.840636 -1.24974,-5.25098 -1.24974,-14.30618 0,-11.252972 0.0924,-11.938879 1.72622,-12.813276 1.05479,-0.564509 2.0203,-0.62978 2.48228,-0.167793 0.41583,0.41583 0.9495,6.415888 1.18593,13.333464 0.23644,6.917576 0.59507,12.844688 0.79695,13.171339 0.2019,0.326664 0.14213,1.180114 -0.1328,1.896568 -0.81317,2.119069 -3.45318,1.507431 -4.80884,-1.114122 z M 105.43097,36.680157 c -1.04576,-1.045762 -0.60839,-4.217396 0.64807,-4.699544 2.18915,-0.840059 3.791,0.365534 3.52567,2.65351 -0.24462,2.109326 -2.83876,3.381019 -4.17374,2.046034 z M 0.59502552,30.141386 C -0.23098742,29.315372 -0.15686043,0.52389263 0.67257106,0.01126199 1.0424961,-0.21736631 4.7981796,3.0630067 9.0185356,7.3009908 L 16.691907,15.006396 8.9409574,22.871404 C 4.6779403,27.197145 0.92226771,30.468639 0.59500367,30.141386 Z M 80.002983,26.815884 c -0.814185,-0.814185 -0.660437,-6.701803 0.318712,-12.20497 1.255757,-7.0577363 1.538078,-7.7275114 3.257284,-7.7275114 1.86758,0 2.89827,1.7702226 4.362931,7.4934104 1.319541,5.156069 2.689858,5.960479 3.430287,2.013673 1.177305,-6.275586 2.586383,-9.0975118 4.542651,-9.0975118 1.543953,0 2.039273,0.6803802 2.872145,3.9452328 0.553533,2.169877 1.128756,6.593249 1.278277,9.829717 0.24718,5.35062 0.1292,5.884483 -1.300547,5.884483 -1.228945,0 -1.785209,-0.944822 -2.546553,-4.325315 -1.143402,-5.076798 -2.016708,-6.356944 -2.016708,-2.95619 0,3.555103 -2.149159,6.200335 -4.789278,5.894773 -1.794545,-0.207702 -2.402939,-0.943304 -3.48992,-4.219603 l -1.316462,-3.968061 -0.552693,3.456293 c -0.840812,5.258178 -2.428583,7.603133 -4.050126,5.98158 z m 22.787697,-1.934118 c -1.21712,-2.353649 -1.21748,-2.721389 -0.004,-4.572838 0.72556,-1.10734 2.41598,-2.232711 3.7565,-2.500812 4.4175,-0.883494 3.92224,-2.318283 -0.67163,-1.945792 -2.4816,0.201225 -3.41584,-2.304031 -1.40697,-3.772951 2.31247,-1.690918 5.15311,-1.332571 7.42196,0.936281 1.86352,1.863517 2.02502,2.577755 1.80584,7.986645 l -0.24096,5.940108 -4.66855,0.244422 c -4.49901,0.235552 -4.71659,0.151486 -5.9921,-2.315063 z m 6.9745,-2.025075 c 0.86941,-1.047574 0.64268,-1.228714 -1.53799,-1.228714 -2.43709,0 -3.19903,0.723948 -2.01163,1.911334 0.91376,0.913771 2.4737,0.613778 3.54962,-0.68262 z m 6.5688,1.883571 c -1.86529,-3.0594 -2.04136,-5.033022 -0.77352,-8.669996 1.02678,-2.945398 3.92336,-5.091149 6.87262,-5.091149 1.75207,0 2.07667,-0.376576 2.07667,-2.4090881 0,-3.2443305 1.27244,-3.8256382 2.90846,-1.3287263 1.15271,1.7592461 1.24451,3.2949754 0.65035,10.8797484 l -0.69181,8.831356 -4.69748,0.245284 c -4.53955,0.237049 -4.75288,0.154436 -6.34529,-2.457429 z m 7.19281,-1.637827 c 1.57821,-1.578216 1.25081,-6.947917 -0.45053,-7.389173 -2.65595,-0.688834 -3.48136,0.227973 -3.48136,3.866857 0,3.136674 0.57858,4.165048 2.49838,4.440618 0.24779,0.03561 0.89287,-0.377668 1.43351,-0.918302 z m 8.53337,2.40128 c -1.38989,-1.479471 -1.8164,-2.923096 -1.8164,-6.14803 0,-3.541418 0.35844,-4.54692 2.24426,-6.295562 2.86662,-2.658064 5.16964,-2.635117 7.88332,0.07852 4.1276,4.127607 2.33197,8.489304 -3.49488,8.489304 -1.8935,0 -2.37112,0.298255 -2.00509,1.25212 0.33414,0.87076 1.38662,1.182613 3.45565,1.023929 2.50513,-0.192138 2.97517,0.03058 2.97517,1.410094 0,1.361667 -0.6269,1.679211 -3.71282,1.880677 -3.02894,0.197751 -4.04737,-0.113732 -5.52921,-1.691084 z m 5.96545,-8.790597 c 0.28827,-0.46642 -0.41717,-0.819142 -1.63828,-0.819142 -1.2211,0 -1.92655,0.352722 -1.63829,0.819142 0.27845,0.45053 1.01568,0.819144 1.63829,0.819144 0.62262,0 1.35984,-0.368614 1.63828,-0.819144 z m 6.68968,10.102766 c -0.74178,-0.741773 -0.67211,-12.734148 0.0808,-13.908285 0.33101,-0.516181 2.07628,-1.069102 3.8784,-1.228715 2.86498,-0.253738 3.30898,-0.06236 3.53453,1.523923 0.19462,1.368679 -0.25793,1.943597 -1.84307,2.341449 -2.00099,0.502222 -2.101,0.796033 -2.101,6.172527 0,4.928031 -0.19079,5.645196 -1.50177,5.645196 -0.82596,0 -1.7475,-0.245744 -2.04785,-0.546095 z m 10.67299,-0.914667 c -0.98693,-1.090552 -1.38937,-2.983319 -1.38937,-6.534599 0,-4.583323 0.19797,-5.140352 2.3791,-6.693436 3.10149,-2.208475 4.34122,-2.136882 7.38775,0.426609 4.76819,4.012164 2.78514,8.528186 -3.74486,8.528186 -1.28947,0 -1.93252,0.383862 -1.71532,1.023929 0.19862,0.585262 1.71935,1.023929 3.54963,1.023929 2.65603,0 3.20213,0.279393 3.20213,1.638286 0,1.390249 -0.62677,1.674929 -4.13984,1.880305 -3.21495,0.187954 -4.45026,-0.100918 -5.52922,-1.293209 z m 5.98292,-9.188099 c 0,-0.450528 -0.75899,-0.819142 -1.68664,-0.819142 -0.92765,0 -1.45882,0.368614 -1.18037,0.819142 0.27844,0.45053 1.03742,0.819144 1.68663,0.819144 0.64921,0 1.18038,-0.368614 1.18038,-0.819144 z m 6.92339,9.613071 c -0.24416,-0.636289 -0.3352,-4.062612 -0.20231,-7.614056 l 0.24162,-6.457173 3.57553,-0.704747 c 2.4156,-0.47613 3.70415,-1.196615 3.972,-2.2209367 0.39405,-1.5068299 5.81773,-4.2534712 6.99227,-3.5410024 1.40616,0.85299 0.45077,2.8812864 -1.80371,3.8292206 -2.29767,0.9660975 -2.33846,1.0664265 -0.81915,2.0152555 1.38046,0.862099 1.59893,1.942374 1.59893,7.905965 0,7.01406 -0.46099,8.223617 -2.79309,7.328709 -0.9974,-0.382737 -1.32177,-1.774909 -1.38428,-5.941441 -0.0753,-5.021927 -1.27678,-11.6084696 -1.47498,-8.086231 -0.0449,0.798085 -0.98754,1.863812 -2.09473,2.368274 -1.79987,0.820081 -2.03843,1.489639 -2.25264,6.322331 -0.19441,4.386107 -0.51029,5.456727 -1.67555,5.678912 -0.78979,0.150579 -1.63575,-0.246802 -1.87991,-0.88308 z m 16.45555,-1.076092 c -2.36285,-3.606173 -0.63598,-6.071282 5.67768,-8.104831 2.25709,-0.726984 0.16169,-1.948064 -2.47724,-1.443603 -2.35311,0.449829 -3.54368,-1.639947 -1.99644,-3.504261 1.58055,-1.904464 5.53059,-1.487498 7.84634,0.828252 1.86352,1.863517 2.02503,2.577755 1.80585,7.986645 l -0.2407,5.940108 -4.5914,0.242128 c -4.19819,0.221387 -4.7141,0.05483 -6.02409,-1.944438 z m 6.72494,-2.598191 c 0.21405,-0.642886 -0.44656,-1.023929 -1.77519,-1.023929 -2.06739,0 -2.69357,0.787797 -1.54171,1.939654 0.84272,0.842713 2.9226,0.268504 3.3169,-0.915725 z"
     style="fill:#000000;stroke-width:0.819143" />
</svg>
