<?xml version="1.0" encoding="UTF-8" standalone="no"?>
<svg
   xmlns:dc="http://purl.org/dc/elements/1.1/"
   xmlns:cc="http://creativecommons.org/ns#"
   xmlns:rdf="http://www.w3.org/1999/02/22-rdf-syntax-ns#"
   xmlns:svg="http://www.w3.org/2000/svg"
   xmlns="http://www.w3.org/2000/svg"
   xmlns:sodipodi="http://sodipodi.sourceforge.net/DTD/sodipodi-0.dtd"
   xmlns:inkscape="http://www.inkscape.org/namespaces/inkscape"
   inkscape:version="1.0 (4035a4fb49, 2020-05-01)"
   sodipodi:docname="San-Martin-logo.svg"
   id="svg84"
   preserveAspectRatio="xMidYMid meet"
   viewBox="0 0 144.30341 67.800439"
   height="90.400581"
   width="192.40454"
   version="1.0">
  <metadata
     id="metadata90">
    <rdf:RDF>
      <cc:Work
         rdf:about="">
        <dc:format>image/svg+xml</dc:format>
        <dc:type
           rdf:resource="http://purl.org/dc/dcmitype/StillImage" />
        <dc:title></dc:title>
      </cc:Work>
    </rdf:RDF>
  </metadata>
  <defs
     id="defs88" />
  <sodipodi:namedview
     inkscape:current-layer="svg84"
     inkscape:window-maximized="1"
     inkscape:window-y="-8"
     inkscape:window-x="-8"
     inkscape:cy="49.412555"
     inkscape:cx="93.752558"
     inkscape:zoom="3.9135529"
     units="px"
     showgrid="false"
     id="namedview86"
     inkscape:window-height="705"
     inkscape:window-width="1366"
     inkscape:pageshadow="2"
     inkscape:pageopacity="0"
     guidetolerance="10"
     gridtolerance="10"
     objecttolerance="10"
     borderopacity="1"
     bordercolor="#666666"
     pagecolor="#ffffff" />
  <ellipse
     transform="matrix(0.99556625,0.094063,-0.10540461,0.99442942,0,0)"
     ry="19.993404"
     rx="61.589031"
     cy="37.413795"
     cx="78.584763"
     id="path933"
     style="fill:#fff500;fill-opacity:1;fill-rule:evenodd;stroke-width:4.15495;paint-order:stroke fill markers" />
  <path
     id="path945"
     d="M 67.130346,67.491005 C 53.379993,66.884964 37.874388,64.159869 27.410204,60.510231 22.799237,58.902043 18.318622,56.822963 19.379794,56.783983 l 0.792791,-0.02912 1.249066,-2.480317 c 1.395646,-2.771382 1.260565,-2.671195 2.639822,-1.957952 l 1.010139,0.522366 -0.310616,1.337872 c -0.170846,0.735828 -0.314432,1.616908 -0.319075,1.957951 l -0.0085,0.62008 h 2.296397 2.296404 l 0.219937,-0.8763 0.219936,-0.8763 1.026969,0.531069 c 0.564841,0.292085 1.026977,0.68642 1.026977,0.876299 0,0.189879 0.396326,0.345232 0.880719,0.345232 0.4844,0 2.987763,0.721715 5.563026,1.603812 14.459015,4.952594 33.51676,7.865209 52.375191,8.004553 l 6.555124,0.04843 -2.220275,0.288553 c -6.373529,0.828312 -18.677355,1.181562 -27.543528,0.790792 z m 30.74496,-1.414755 c 0.344749,-0.08984 0.823096,-0.08393 1.062993,0.01315 0.239889,0.09706 -0.04215,0.170564 -0.626827,0.163343 -0.584646,-0.0072 -0.780923,-0.08663 -0.436166,-0.176471 z M 6.7583258,55.468395 C 5.712309,54.735734 4.9452599,52.916432 4.9452599,51.168128 v -1.357524 l 1.1767332,-0.425513 c 1.5374498,-0.555949 2.0122459,-0.536914 2.0122459,0.08067 0,1.694691 2.701976,2.173537 3.871924,0.686186 1.198698,-1.523895 0.95517,-2.59603 -1.034902,-4.556179 -2.5256677,-2.487691 -2.6693275,-5.128945 -0.540751,-9.942035 2.749746,-6.217664 9.035769,-6.885644 9.040995,-0.960737 l 0.0014,1.501152 -1.283429,0.536251 c -1.591127,0.664814 -1.434127,0.696686 -1.695367,-0.344179 -0.141432,-0.563507 -0.559758,-0.96546 -1.162132,-1.116645 L 14.39082,35.03336 13.565719,35.992597 c -0.453898,0.527581 -0.825195,1.418023 -0.825195,1.978751 v 1.019513 l 1.591712,1.304289 c 1.130758,0.926572 1.704516,1.723204 1.981224,2.750824 l 0.389512,1.446535 -0.409011,2.078955 c -1.328957,6.754981 -6.159329,11.261795 -9.5356529,8.896926 z m 10.9428502,0.05832 c 0,-0.197886 11.155207,-23.127773 11.684534,-24.017937 0.445718,-0.749556 3.197364,-0.896208 3.197364,-0.170407 0,0.247319 -0.956693,5.705404 -2.125986,12.129078 -1.169292,6.423674 -2.125986,11.802036 -2.125986,11.951914 0,0.149879 -0.637795,0.272506 -1.417324,0.272506 -0.779528,0 -1.413426,-0.119587 -1.408657,-0.265749 0.0078,-0.237281 0.375251,-1.999482 0.88678,-4.251971 l 0.181048,-0.797245 H 24.303902 22.03485 l -1.167879,2.657482 -1.167879,2.657483 h -0.998958 c -0.549425,0 -0.998958,-0.07432 -0.998958,-0.165154 z m 10.474072,-13.28775 0.729967,-3.885126 -0.461428,-0.177067 c -0.504272,-0.193506 -0.747993,0.215728 -2.887089,4.847766 l -1.431778,3.100396 1.660181,-3.54e-4 1.660174,-3.55e-4 0.729973,-3.885129 z m 4.762157,13.302174 c 0,-3.174509 8.5447,-24.652438 9.807639,-24.652438 h 1.261861 l -0.214762,4.340555 c -0.634732,12.828582 -0.509904,12.971371 2.788231,3.189383 l 2.479092,-7.352775 1.02316,-0.116822 c 0.731361,-0.08351 0.975805,0.01755 0.857119,0.354331 -0.09132,0.259134 -1.986778,5.851524 -4.212132,12.427535 l -4.046105,11.956385 -1.006204,0.0021 -1.006204,0.0021 0.105723,-7.859221 c 0.133044,-9.889272 0.03624,-9.892266 -3.220603,-0.09968 l -2.64697,7.959227 h -0.984923 c -0.541705,0 -0.984922,-0.06783 -0.984922,-0.150732 z m 23.056134,-0.09148 c 0.01351,-0.159106 1.888842,-5.710548 4.167338,-12.336537 l 4.142727,-12.047254 2.033454,-0.106266 2.033447,-0.106265 -0.0015,0.460596 c -7.09e-4,0.253329 -0.475882,2.852331 -1.055855,5.775562 -1.804335,9.094408 -1.421849,9.142636 2.810125,0.354331 l 3.156595,-6.555124 h 1.974382 c 2.435265,0 2.700261,-1.568816 -2.139729,12.667333 l -4.125902,12.135833 h -1.194945 c -1.538202,0 -1.690794,0.73878 2.026729,-9.812651 4.443125,-12.610909 4.66577,-14.731693 0.653084,-6.220827 -1.1715,2.484747 -3.359678,7.108156 -4.862617,10.274249 l -2.732616,5.756529 -0.620079,0.0014 c -0.842437,0.0018 -0.857902,0.130596 1.200606,-9.997445 2.878866,-14.164272 2.419764,-14.240417 -2.202373,-0.365284 l -3.393502,10.186914 -0.947053,0.112118 c -0.520881,0.06166 -0.935973,-0.01807 -0.922434,-0.177166 z m 18.400591,0.115444 c 0,-0.06972 2.704099,-5.650435 6.009107,-12.401585 l 6.009107,-12.274816 h 1.431844 1.431844 v 0.626838 c 0,0.34476 -0.956694,5.88257 -2.125986,12.306244 -1.169292,6.423674 -2.125986,11.72231 -2.125986,11.774748 0,0.05244 -0.64083,0.09534 -1.424071,0.09534 h -1.424078 l 0.181048,-0.797245 c 0.511529,-2.252489 0.879051,-4.01469 0.886787,-4.251972 0.0044,-0.146161 -0.949341,-0.265748 -2.120228,-0.265748 h -2.128887 l -1.314952,2.657482 -1.314959,2.657483 h -0.985299 c -0.541912,0 -0.985291,-0.05705 -0.985291,-0.126769 z M 84.876156,42.493038 c 1.096677,-5.862548 0.615377,-5.942715 -2.127307,-0.354331 l -1.956372,3.986224 h 1.702147 1.70214 z m 4.896095,12.602002 c 0.112418,-0.353832 2.006259,-5.905146 4.208522,-12.336253 l 4.004117,-11.692923 2.82078,-0.09052 c 3.39714,-0.109016 4.42361,0.319096 4.8665,2.029661 0.69964,2.702304 -1.17315,8.545513 -3.47744,10.849806 l -1.51636,1.516366 -0.65777,5.071763 -0.657783,5.071762 -1.322917,0.109974 -1.322917,0.10997 0.0066,-0.818632 c 0.0037,-0.450252 0.239808,-2.333401 0.52514,-4.18478 0.285333,-1.851379 0.521649,-3.735007 0.525141,-4.18584 l 0.0066,-0.819695 -1.118431,0.111033 -1.118424,0.111034 -1.673786,4.783468 -1.673778,4.783468 -1.313852,0.111835 -1.313852,0.111837 0.204397,-0.643334 z M 101.13308,40.678059 c 1.07041,-1.070416 1.6767,-3.18332 1.24173,-4.327388 l -0.32532,-0.85567 h -1.53352 -1.533513 l -0.82548,2.5689 c -0.454016,1.412895 -0.901079,2.768211 -0.993485,3.011813 -0.119454,0.314937 0.308327,0.442914 1.480513,0.442914 h 1.648505 z m 5.8595,14.708762 c 0,-0.167772 1.43504,-4.486284 3.18898,-9.59669 3.69335,-10.761213 3.53252,-9.940799 1.94882,-9.940799 -1.44179,0 -1.42682,0.09448 -0.42101,-2.657482 l 0.77702,-2.125986 4.143,-0.09966 4.14301,-0.09966 -0.80853,2.40281 -0.80853,2.40281 -1.449,0.107681 -1.44899,0.107681 -0.7585,2.19547 c -0.41718,1.207511 -1.84763,5.38445 -3.17878,9.282091 -1.33116,3.89764 -2.53339,7.365655 -2.67164,7.706699 -0.26029,0.642132 -2.65585,0.926292 -2.65585,0.315032 z m 13.3151,-9.527638 c 1.84572,-5.407977 3.77192,-10.98869 4.28045,-12.401585 l 0.92459,-2.5689 h 1.21867 c 0.86569,0 1.1855,0.144447 1.10411,0.498692 -0.063,0.274281 -1.94822,5.854498 -4.18936,12.400488 l -4.07481,11.901797 -1.30975,10e-4 -1.30976,10e-4 3.35586,-9.832685 z m 5.46582,9.566937 c 0.003,-0.557172 8.16826,-23.99051 8.46181,-24.284065 0.16982,-0.169817 0.76667,-0.256431 1.32634,-0.192475 l 1.01757,0.116284 -0.0213,1.771655 c -0.0117,0.97441 -0.0881,4.230942 -0.16972,7.236742 -0.19344,7.121504 0.0907,7.056648 2.62585,-0.59928 1.1443,-3.455722 2.29217,-6.80134 2.55082,-7.434707 l 0.47028,-1.151576 h 0.90391 c 1.14732,0 1.49417,-1.328563 -3.28387,12.578751 l -4.139,12.047253 -1.00223,0.114804 -1.00222,0.114799 0.0903,-7.889239 c 0.11318,-9.882976 0.0334,-9.886101 -3.22331,-0.126217 l -2.6571,7.963019 h -0.97479 c -0.53613,0 -0.97418,-0.119587 -0.97342,-0.265748 z M 15.156736,54.729385 14.206788,54.140089 15.083623,52.643885 c 0.482259,-0.822913 1.168197,-2.323561 1.524307,-3.334772 l 0.647477,-1.838567 1.087558,1.010265 1.087562,1.010265 -1.373043,2.92323 c -1.489965,3.172162 -1.502718,3.182339 -2.900748,2.315079 z M 9.7708407,49.836903 C 9.4553555,49.521417 9.197232,48.801338 9.197232,48.23673 c 0,-0.723115 -0.1433446,-0.971558 -0.48493,-0.840481 -0.6155615,0.236215 -0.9311361,-0.898441 -0.8955997,-3.220138 l 0.027106,-1.771655 0.310323,1.065973 c 0.1706776,0.586286 1.0332676,1.775492 1.9168627,2.642675 1.738823,1.706525 2.000401,2.734534 0.939991,3.694191 L 10.344439,50.410511 9.7708267,49.836903 Z M 128.63867,39.366737 c -0.46967,-0.391046 -1.10134,-0.849444 -1.40371,-1.018663 l -0.54978,-0.307669 0.62458,-1.981362 c 0.74974,-2.378474 0.97838,-2.399899 4.04813,-0.379343 0.16565,0.109024 -1.46789,4.42204 -1.67019,4.409815 -0.10731,-0.0065 -0.57937,-0.331735 -1.04903,-0.722778 z m -7.35418,-4.290771 -0.76715,-0.37107 0.50731,-1.465186 c 0.27903,-0.805851 0.57716,-1.658718 0.66252,-1.89526 l 0.15522,-0.430075 1.07904,0.376155 c 1.25706,0.438215 1.248,0.393362 0.51423,2.546861 -0.584,1.71397 -0.85078,1.867569 -2.15117,1.238575 z M 106.28392,29.427352 C 95.823486,26.173189 81.646156,23.877346 66.421684,22.972156 c -0.97441,-0.05793 1.045882,-0.134076 4.489537,-0.169203 15.413433,-0.157226 32.717019,2.169301 45.116799,6.066112 l 2.48032,0.779475 -3.29387,0.102095 -3.29387,0.102095 -0.19876,0.517984 c -0.25723,0.670336 -0.24251,0.67289 -5.43792,-0.943362 z m -94.260569,-2.107267 0.877299,-0.365419 -0.522968,-0.33071 c -0.287632,-0.18189 -0.891138,-0.33315 -1.341125,-0.336135 -0.454199,-0.003 -0.720738,-0.163049 -0.599167,-0.359757 0.137236,-0.222051 -0.6233526,-0.354331 -2.0373496,-0.354331 -1.4353802,0 -2.5065937,-0.189283 -2.944143,-0.520228 C 5.0118955,24.71768 3.9128988,24.529284 2.3554488,24.522009 0.83395595,24.514922 0.02398703,24.379382 0.16259541,24.155109 0.28348134,23.959511 0.81110086,23.892684 1.3350825,24.006603 L 2.2877774,24.213728 1.756281,23.836164 C 1.3835425,23.571377 1.3595225,23.456978 1.675867,23.453173 l 0.4510818,-0.0054 -0.5876616,-0.896885 C 1.2160731,22.057612 1.01765,21.587988 1.0983481,21.507291 c 0.080697,-0.0807 0.4610562,0.322442 0.8452418,0.895866 0.911549,1.360552 1.3249012,1.343709 0.6415303,-0.02614 C 2.2225835,21.650296 2.1226481,20.824886 2.2740929,19.808118 l 0.2231436,-1.49813 -0.4590601,0.589386 c -0.2524838,0.324163 -0.6601106,0.882234 -0.9058383,1.240158 -0.24572711,0.357926 -0.1042243,-0.06675 0.314451,-0.943717 0.8228451,-1.723555 1.9000497,-3.251966 2.1299286,-3.022087 0.078573,0.07857 0.082707,-0.487906 0.00919,-1.258841 -0.073516,-0.770935 0.039013,-1.609778 0.2500801,-1.864095 C 4.0951957,12.738463 4.103211,12.471866 3.8606728,12.22933 3.6181353,11.986754 3.620888,11.556482 3.8691552,10.903497 4.276139,9.8330516 4.0216054,9.1224393 2.8520983,8.0640511 2.08964,7.3740388 1.8537471,6.4398599 2.4419638,6.4398599 c 0.1822435,0 0.7801771,0.6343913 1.3287413,1.409759 C 5.082947,9.7044036 5.3822822,9.6444021 6.5747403,7.2875533 7.196634,6.0583975 7.9084357,5.175745 8.4410874,4.9732315 L 9.3021258,4.6458644 8.7576534,4.2141209 C 8.4581942,3.9766623 8.1121332,3.203972 7.9886311,2.4970322 L 7.7640812,1.2116869 8.5148304,1.0153609 c 1.2107881,-0.31662794 3.6082196,1.9366869 3.0395436,2.8568247 -0.103667,0.1677359 0.78041,0.5199232 1.964616,0.7826382 l 2.1531,0.477664 0.705104,-0.4403441 0.705101,-0.4403441 0.530745,0.5307443 0.530746,0.530745 -0.33585,1.7148609 -0.335849,1.7148615 -0.599319,-1.2401584 C 16.543145,6.8207657 16.355516,6.5547709 16.455817,6.9117535 16.55612,7.2687361 16.638183,7.9580958 16.638183,8.4436651 V 9.326517 l 1.908533,-1.0919529 c 1.343815,-0.7688525 2.287356,-1.0648672 3.188806,-1.0004144 l 1.280262,0.091538 0.177343,1.1515757 c 0.09754,0.6333666 0.259244,1.6827396 0.35935,2.3319386 0.247154,1.602901 -0.723681,2.717278 -2.36727,2.717278 -1.428772,0 -2.066707,0.52414 -2.066707,1.69805 0,0.466211 -0.318898,1.253068 -0.708662,1.748573 -0.389764,0.495504 -0.727158,1.317899 -0.749764,1.827543 l -0.0411,0.926626 -0.170373,-0.66333 c -0.09371,-0.364832 0.06163,-1.241801 0.345185,-1.94882 0.283557,-0.707021 0.669513,-1.765928 0.857676,-2.353127 l 0.342118,-1.067636 -1.838964,-0.727945 -1.83896,-0.727945 -0.758446,0.614152 -0.758445,0.614152 2.128374,0.825293 c 2.377593,0.921933 2.532748,1.294839 1.242543,2.986385 -1.042141,1.366316 -1.167287,2.614683 -0.265748,2.650891 l 0.620079,0.02491 -0.556881,0.240844 c -0.60575,0.261979 -1.00569,4.315649 -0.425785,4.315649 0.169877,0 0.24536,-0.543994 0.16774,-1.208875 -0.07762,-0.664881 0.02721,-1.501988 0.232948,-1.860238 l 0.374074,-0.651362 -0.207046,1.321879 c -0.142902,0.912375 -0.02838,1.594562 0.369702,2.202102 0.759647,1.159368 0.735077,1.259487 -0.309083,1.259487 -0.487205,0 -0.885828,0.159449 -0.885828,0.354331 0,0.194882 0.478347,0.354331 1.062993,0.354331 1.338401,0 1.434782,0.892855 0.131687,1.219911 -1.178564,0.295801 -2.966235,-0.08262 -2.96665,-0.627985 -4.6e-4,-0.608035 -2.645463,-3.072243 -3.297645,-3.072243 -1.5656995,0 -0.837054,1.346586 1.342117,2.480317 1.386777,0.721481 1.322137,1.223595 -0.170143,1.321634 l -1.240158,0.08148 z m 5.491521,-0.5373 c -0.189857,-0.04624 -0.781739,-0.180294 -1.315294,-0.2979 -0.668325,-0.147311 -1.194128,-0.652959 -1.690272,-1.625483 -0.396096,-0.77641 -0.876382,-1.411655 -1.067302,-1.411655 -0.190925,0 -0.347131,-0.239173 -0.347131,-0.531496 v -0.531497 h -1.417324 -1.417324 v 0.556855 c 0,0.373927 0.264647,0.522174 0.805614,0.451284 0.790732,-0.103621 3.800689,2.445818 3.800689,3.21919 0,0.398787 1.328727,0.640145 2.294013,0.416699 0.384736,-0.08906 0.544185,-0.199759 0.354331,-0.245997 z M 6.8054976,24.630405 c -0.2436025,-0.0983 -0.6422249,-0.0983 -0.8858275,0 -0.2436025,0.0983 -0.044291,0.178719 0.4429138,0.178719 0.4872051,0 0.6865163,-0.08042 0.4429137,-0.178719 z M 9.558671,24.325012 C 9.8051865,24.02798 9.9044346,23.682507 9.7792207,23.557295 9.6540112,23.432083 9.551563,23.515665 9.551563,23.743023 c 0,0.227363 -0.1793801,0.373524 -0.3986224,0.324804 -0.2192423,-0.04872 -0.4717031,0.110728 -0.5610226,0.354331 -0.2270907,0.619332 0.4266463,0.55364 0.966753,-0.09715 z m 6.256802,-3.47854 0.168835,-2.890855 -0.3763,0.531496 -0.376296,0.531497 -0.0054,-1.033465 c -0.0028,-0.568406 0.09949,-0.92855 0.227722,-0.80032 0.353338,0.353339 1.184177,-0.47255 1.184177,-1.177123 0,-0.416775 -0.378694,-0.697297 -1.151575,-0.853046 l -1.151576,-0.232061 0.491996,-0.30639 c 0.32383,-0.201665 0.08601,-0.274453 -0.695786,-0.212953 -2.042948,0.16071 -3.675345,3.020868 -1.724125,3.020868 0.463862,0 0.702188,-0.259534 0.732101,-0.797244 0.02459,-0.442151 0.169416,-0.165968 0.325148,0.620079 0.154443,0.779528 0.361457,1.736222 0.460039,2.125986 0.09858,0.389764 0.205813,1.266733 0.238302,1.94882 l 0.05907,1.240159 0.34622,-1.204508 c 0.190421,-0.66248 0.215904,-1.300276 0.05663,-1.417324 -0.159275,-0.117049 -0.322877,-0.691163 -0.363558,-1.275809 l -0.07397,-1.062993 0.500896,1.062993 c 0.579165,1.229091 0.72781,5.65444 0.17853,5.314965 -0.399905,-0.247154 -0.486582,0.281135 -0.108209,0.659508 0.488569,0.48857 0.891571,-0.957099 1.057153,-3.79228 z M 8.48857,23.760256 c 0,-0.194883 -0.1594489,-0.255787 -0.354331,-0.135343 -0.194882,0.120444 -0.354331,0.378437 -0.354331,0.573319 0,0.194882 0.159449,0.255787 0.354331,0.135343 C 8.3291211,24.213131 8.48857,23.955138 8.48857,23.760256 Z M 7.2697,21.764675 c 0.01173,-1.218013 -0.1118231,-2.214569 -0.2745179,-2.214569 -0.4002279,0 -1.0424706,1.749457 -0.791388,2.155721 0.1103387,0.178528 0.03175,0.324596 -0.1746283,0.324596 -0.5352207,0 -0.4637026,-0.927123 0.1653523,-2.143582 0.6733064,-1.302031 0.854044,-1.300529 2.1168864,0.0176 1.4421242,1.505251 2.4210905,0.640931 1.2039961,-1.062993 L 9.1357593,18.30995 9.3252237,19.195778 9.5146882,20.081605 8.4357644,18.752864 C 7.8423559,18.022056 7.1381369,17.424123 6.8708333,17.424123 c -0.2857473,0 -0.4022336,-0.218312 -0.2827,-0.529817 L 6.7914455,16.364489 5.7932877,16.88234 C 5.1555805,17.213186 4.7156534,17.271598 4.5750482,17.044094 4.4302369,16.809786 4.0458475,16.805524 3.4511376,17.031633 l -0.9038297,0.343636 0.2879744,1.530334 c 0.158386,0.841683 0.3900402,1.849232 0.5147876,2.238996 0.1587809,0.496099 0.063816,0.442958 -0.3166007,-0.177166 l -0.5434145,-0.885827 -0.012557,0.757991 c -0.00694,0.416894 0.3196885,1.134415 0.7257651,1.594489 l 0.7383232,0.836499 -0.1955531,-0.619684 c -0.1075542,-0.340828 -0.06268,-0.978624 0.099713,-1.417324 l 0.2952647,-0.79764 0.2668821,1.240158 c 0.4355083,2.023745 0.8357532,2.534759 1.889941,2.41297 l 0.9505778,-0.109818 0.021297,-2.214569 z m 1.7613655,0.992204 C 8.9006429,22.545853 8.6284776,22.475451 8.4262579,22.600431 c -0.2380646,0.147133 -0.2018239,0.32974 0.1028055,0.518011 0.5686164,0.351425 0.8274404,0.165009 0.5020021,-0.361563 z M 13.675603,20.820412 C 13.356054,18.101545 11.677549,16.02485 11.677549,18.34836 v 0.569909 l -0.827239,-0.207624 -0.827239,-0.207624 0.03002,1.497953 c 0.03458,1.727243 0.337401,2.056551 1.649747,1.794081 0.606725,-0.121344 1.119527,0.0089 1.43401,0.364091 0.74125,0.837306 0.782487,0.734843 0.538781,-1.338734 z m -4.12404,0.85568 c 0,-0.194882 -0.2790357,-0.351889 -0.6200793,-0.348905 l -0.6200792,0.0054 0.5314965,0.34348 c 0.6686971,0.432145 0.708662,0.432145 0.708662,0 z M 9.7135956,17.802935 C 9.9756411,17.378942 9.309084,16.958838 8.8371225,17.250527 c -0.3962698,0.244908 -0.1361237,0.882255 0.3601095,0.882255 0.1718793,0 0.4042422,-0.148431 0.5163636,-0.329847 z M 8.842901,16.319801 c 0,-0.172152 0.1993112,-0.314013 0.4429137,-0.315245 0.6489115,-0.0033 1.7405443,-2.046402 1.2540373,-2.347079 -0.251947,-0.155714 -0.15188,-0.418545 0.286774,-0.753228 l 0.673757,-0.514057 -0.841617,0.251774 c -0.533683,0.159654 -0.7607131,0.12087 -0.620501,-0.106003 0.121617,-0.196776 -0.280832,-0.532756 -0.8943273,-0.746622 -1.4823615,-0.516754 -1.685631,-0.47545 -0.8325332,0.169171 0.3897641,0.294514 0.708662,0.723219 0.708662,0.952677 0,0.229458 0.3848957,0.609088 0.855327,0.843623 L 10.73072,14.181237 9.382271,14.434208 8.0338216,14.687179 7.3832491,13.841081 c -0.9364016,-1.217824 -0.7945098,-1.742435 0.1569651,-0.58035 0.8603193,1.050755 1.3106415,1.236403 1.2892399,0.531497 -0.015317,-0.504488 -2.8212012,-2.556848 -2.8212012,-2.063563 0,0.176789 0.1380584,0.374585 0.3067975,0.439546 0.1687361,0.06496 0.179944,0.437008 0.024906,0.826772 L 6.0580652,13.703645 6.0331587,12.974124 C 6.0194431,12.572887 5.7741501,11.935091 5.4880241,11.5568 l -0.5202184,-0.687803 -0.011272,1.505907 -0.011265,1.505907 h 0.8181045 c 0.8513725,0 1.5391215,0.443533 2.3522619,1.516981 l 0.4780988,0.631155 -0.6726583,0.502798 -0.6726555,0.502797 0.7972449,-0.200868 c 0.4384846,-0.110477 0.7972448,-0.34172 0.7972448,-0.513873 z m 2.469049,-1.355138 -0.01126,-0.552356 -0.520225,0.687802 c -0.286126,0.378291 -0.515158,0.936363 -0.508961,1.240159 l 0.01126,0.552356 0.520225,-0.687802 c 0.286126,-0.378291 0.515159,-0.936363 0.508961,-1.240159 z m -5.1265316,1.042134 c 0.2590159,-0.419097 -0.087704,-0.419097 -1.062993,0 l -0.708662,0.304522 0.7763326,0.02491 c 0.4269829,0.01369 0.8748786,-0.134546 0.9953224,-0.329428 z M 5.9260237,14.943804 6.3685898,14.235142 H 5.7277896 c -0.352439,0 -0.8434178,0.199311 -1.0910664,0.442913 L 4.1864497,15.120969 4.440367,14.09371 c 0.1809606,-0.732112 0.1372642,-0.955165 -0.1520929,-0.776334 -0.8368515,0.517203 -0.1986416,2.33509 0.8197832,2.33509 0.2064687,0 0.5745551,-0.318898 0.8179664,-0.708662 z m 7.1024123,-1.395179 c 0.08858,-0.265748 -0.04429,-0.398622 -0.31004,-0.310039 -0.255781,0.08526 -0.53482,0.364296 -0.620079,0.620079 -0.08858,0.265748 0.04429,0.398622 0.310039,0.310039 0.255782,-0.08526 0.534821,-0.364296 0.62008,-0.620079 z m 7.208046,-0.635303 -1.18517,-0.145415 0.608514,-0.444957 c 0.418163,-0.305769 0.53207,-0.685815 0.364131,-1.214936 l -0.244382,-0.76998 -0.773452,0.40711 c -0.425398,0.22391 -0.890596,0.582549 -1.033774,0.796977 -0.180135,0.26978 -0.261993,0.253441 -0.265748,-0.05305 -0.003,-0.243603 -0.164874,-0.442914 -0.359756,-0.442914 -0.664279,0 -0.356688,0.730552 0.442913,1.051951 l 0.797245,0.320454 -0.708662,0.04736 -0.708662,0.04736 0.708662,0.304522 c 0.389764,0.167487 1.346458,0.290212 2.125986,0.272722 l 1.417324,-0.0318 -1.185169,-0.145415 z m -5.395413,-1.281499 c 0.156842,-0.419554 0.40094,-1.161448 0.542445,-1.6486532 l 0.257287,-0.8858275 -0.592254,0.8084682 c -0.723284,0.9873295 -1.36006,3.0249335 -0.84605,2.7072595 0.194376,-0.120132 0.481735,-0.561693 0.638572,-0.981247 z m 8.305307,0.553261 c 0.09464,-0.153122 -0.135125,-0.278403 -0.510581,-0.278403 -0.375457,0 -0.682647,0.125281 -0.682647,0.278403 0,0.153121 0.229762,0.278403 0.510584,0.278403 0.280821,0 0.588016,-0.125282 0.682644,-0.278403 z M 12.226425,11.428616 c -0.08334,-0.134847 -0.759139,-0.173437 -1.501779,-0.08575 l -1.3502485,0.159421 0.6843125,0.242022 c 0.79177,0.280028 2.391872,0.047 2.167715,-0.315688 z m 9.018061,0.326209 c 0,-0.194882 -0.159449,-0.354331 -0.354331,-0.354331 -0.194883,0 -0.354331,0.159449 -0.354331,0.354331 0,0.194882 0.159448,0.354331 0.354331,0.354331 0.194882,0 0.354331,-0.159449 0.354331,-0.354331 z M 14.911432,9.1859251 c 0.976345,-1.9129858 0.612893,-1.636948 -0.93307,0.7086619 -0.911715,1.383296 -1.086354,1.809888 -0.543958,1.328741 0.439377,-0.389764 1.104042,-1.3065953 1.477028,-2.0374029 z M 9.2998079,10.337148 C 9.044849,9.3621885 8.842901,9.4498928 8.842901,10.535578 c 0,0.498706 0.1444785,0.817446 0.3210667,0.708309 C 9.3405559,11.13475 9.401681,10.726718 9.2998079,10.337148 Z M 12.90672,10.709609 C 13.021122,10.524505 12.779288,10.193538 12.369313,9.974127 L 11.623907,9.5751975 12.017526,10.31068 c 0.439828,0.821823 0.58702,0.88786 0.889194,0.398929 z m 4.085794,-0.811672 c 0,-0.4272265 -0.197338,-0.3221179 -0.919492,0.489756 l -0.674998,0.758855 0.797245,-0.489757 c 0.438484,-0.269366 0.797245,-0.610851 0.797245,-0.758854 z m 6.023624,0.11606 V 8.9818297 l -1.151573,0.057756 c -0.633367,0.031764 -1.137959,0.1374812 -1.121316,0.2349222 0.115799,0.6779983 1.134026,1.7716551 1.649464,1.7716551 h 0.623425 z M 8.48857,10.201661 c 0,-0.6467777 -1.2405233,-0.9539694 -1.7899807,-0.4432529 L 6.2661741,10.160335 6.4739221,9.2745078 6.68167,8.3886803 6.1764686,9.0646221 5.6712664,9.7405638 6.2826756,10.204928 c 0.8131933,0.617625 2.2058944,0.615563 2.2058944,-0.0032 z m 5.362456,-1.8674148 -0.380272,-0.6542279 -0.01078,1.0452765 -0.01078,1.0452764 0.391047,-0.3910485 c 0.280258,-0.2802559 0.283313,-0.5764036 0.01077,-1.0452765 z M 10.143632,8.0959697 10.912871,7.2840048 10.242764,6.8655177 9.5726604,6.44703 9.2077807,7.128813 C 8.3243236,8.7795665 8.9163649,9.391409 10.143632,8.0959697 Z m 2.831576,-0.3273686 c -0.0983,-0.2436025 -0.17872,-0.044291 -0.17872,0.4429137 0,0.4872051 0.08042,0.6865163 0.17872,0.4429138 0.0983,-0.2436026 0.0983,-0.642225 0,-0.8858275 z m 3.233441,0.040143 c -0.08846,-0.2653747 -0.249074,-0.1047587 -0.374369,0.3743692 -0.154123,0.589375 -0.10801,0.7277169 0.154928,0.4647789 0.205901,-0.2059025 0.30465,-0.5835189 0.219441,-0.8391481 z m -8.6059065,0.04844 C 7.723187,7.6623021 7.6622845,7.5028532 7.467399,7.5028532 c -0.194882,0 -0.4528741,0.1594489 -0.5733186,0.3543309 -0.1204438,0.1948821 -0.059535,0.354331 0.1353441,0.354331 0.194882,0 0.4528741,-0.1594489 0.573318,-0.354331 z M 11.567469,6.5284427 c -0.08913,-0.3410436 -0.162047,-0.062008 -0.162047,0.6200792 0,0.6820871 0.07292,0.9611228 0.162047,0.6200792 0.08912,-0.3410435 0.08912,-0.8991148 0,-1.2401584 z m 3.698588,0.7309029 0.486298,-0.5978384 -0.64906,0.2435074 c -0.356981,0.133929 -0.804877,0.2435073 -0.995319,0.2435073 -0.190446,0 -0.24772,0.159449 -0.127276,0.354331 0.318101,0.5146952 0.732467,0.4361947 1.285357,-0.2435073 z M 11.418544,5.4987789 c -0.239893,-0.097059 -0.71824,-0.1029671 -1.062993,-0.013125 -0.344754,0.089839 -0.148476,0.1692514 0.43617,0.1764724 0.584646,0.00723 0.866715,-0.066282 0.626823,-0.1633429 z M 10.103919,2.7306537 C 10.840506,2.1735258 10.568734,2.0674095 9.2858147,2.4112176 8.8473301,2.5287271 8.48857,2.7657236 8.48857,2.937876 c 0,0.4808796 0.8497145,0.3718756 1.615349,-0.2072223 z M 126.70048,26.47651 c 0.16391,-0.427159 1.77515,-1.85298 3.94369,-3.489871 l 0.44292,-0.334326 v 0.9198 0.919801 l -1.85551,1.249571 c -1.96582,1.323859 -2.85629,1.582449 -2.5311,0.735025 z M 25.314328,14.959428 c 0.120982,-0.38117 0.759612,-1.935797 1.41917,-3.454727 l 1.199211,-2.7616897 1.882273,-0.091876 c 4.045736,-0.197479 3.851245,3.9409737 -0.199134,4.2370757 l -1.460545,0.106772 -0.623549,1.328741 -0.623549,1.328742 H 26.001288 25.09437 Z m 4.952012,-3.682346 c 0.694489,-0.507825 0.482348,-1.2939122 -0.349186,-1.2939122 -0.437074,0 -1.231721,1.0136552 -1.231721,1.5711962 0,0.367679 0.919393,0.206421 1.580907,-0.277284 z m 3.128987,0.832074 1.463335,-3.5433102 h 0.959403 0.95941 l -1.463335,3.5433102 -1.463336,3.54331 h -0.959403 -0.95941 z m 2.962886,0.620079 C 37.05558,11.121458 37.705918,9.5269686 37.803418,9.1859251 37.918613,8.7830049 38.33225,8.5658458 38.984529,8.5658458 h 1.003834 l 0.427043,2.1706192 0.427043,2.170618 0.86845,-2.170618 0.868458,-2.1706192 h 0.834878 0.834885 l -1.267937,2.9232302 c -0.697367,1.607777 -1.347713,3.202267 -1.445213,3.54331 -0.104018,0.363854 -0.520586,0.62008 -1.008116,0.62008 H 39.697007 L 39.30793,14.146559 C 39.093943,13.31831 38.828151,12.330971 38.717289,11.952473 l -0.20157,-0.688181 -0.87784,2.194087 -0.87784,2.194087 h -0.834885 -0.834878 z m 8.470275,0.08858 1.195498,-2.8346482 h -0.734735 c -0.524417,0 -0.67317,-0.1604426 -0.519663,-0.5604756 0.118287,-0.3082628 0.215071,-0.6271607 0.215071,-0.708662 0,-0.081503 1.201478,-0.1481864 2.669951,-0.1481864 h 2.66995 l -0.379267,0.708662 c -0.20921,0.3909201 -0.741903,0.708662 -1.188064,0.708662 h -0.808805 l -1.170341,2.8346482 -1.170347,2.834648 h -0.987373 -0.987381 z m 4.851057,2.599981 c -0.707666,-0.285548 -0.51942,-1.641397 0.589776,-4.247988 l 1.032691,-2.4267997 1.086858,-0.110552 1.086852,-0.1105527 -1.056549,2.4828654 c -1.297951,3.050129 -1.306012,3.306666 -0.09954,3.165322 l 0.957011,-0.112118 1.143559,-2.657482 1.143551,-2.6574827 0.767149,-0.1175604 0.767156,-0.1175611 -0.256019,0.8066375 C 55.166431,14.593902 52.747,16.65554 49.679542,15.417796 Z m 6.421983,-0.308485 c 0.114634,-0.298732 0.788409,-1.893222 1.497285,-3.543309 l 1.28885,-3.0001592 h 1.93007 c 2.101581,0 3.3008,0.4490363 3.3008,1.235953 0,0.9182262 -0.80721,2.2908792 -1.471094,2.5015892 l -0.654892,0.207854 v 1.570612 1.570612 h -1.062993 -1.062993 v -1.417324 c 0,-0.952754 -0.156592,-1.417324 -0.477749,-1.417324 -0.262758,0 -0.728283,0.637795 -1.034484,1.417324 l -0.556743,1.417324 h -0.952242 -0.952242 z m 5.205654,-3.721287 c 0.376949,-0.201738 0.685365,-0.600361 0.685365,-0.885827 0,-0.7647233 -1.67631,-0.650597 -2.10105,0.143044 -0.565793,1.057191 0.138115,1.426518 1.415685,0.742783 z m 1.807413,3.970787 c 0.06496,-0.161508 1.154529,-1.749346 2.421262,-3.52853 l 2.303151,-3.2348789 1.184824,-0.014779 1.184831,-0.014779 -0.210421,1.7716549 c -0.115726,0.97441 -0.305101,2.5689 -0.420827,3.54331 l -0.210421,1.771655 H 68.514422 67.661843 V 14.943802 14.23514 h -1.15492 c -0.771186,0 -1.301982,0.235465 -1.597501,0.708662 -0.417062,0.667838 -2.048218,1.045001 -1.794827,0.415009 z m 4.901579,-3.651774 V 10.59626 l -0.708662,0.900917 c -0.389764,0.495505 -0.708662,0.995355 -0.708662,1.110778 0,0.115423 0.318898,0.20986 0.708662,0.20986 h 0.708662 z m 3.037126,3.388619 c -0.306245,-0.306243 -0.556809,-0.68758 -0.556809,-0.847415 0,-0.490416 1.857772,-0.801415 2.132445,-0.35698 0.293386,0.474699 1.833602,0.330367 2.002146,-0.187619 0.06341,-0.194882 -0.480288,-0.673229 -1.208223,-1.062993 -1.694684,-0.907403 -1.82414,-1.688235 -0.499496,-3.0128821 l 1.061921,-1.0619241 h 1.56683 c 1.08956,0 1.752491,0.2051525 2.17633,0.6734851 0.820328,0.9064551 0.251782,1.2011431 -1.740865,0.9023271 L 74.39413,9.9027057 v 0.5333163 c 0,0.293324 0.387476,0.630566 0.861047,0.749426 2.094428,0.525667 2.469871,1.899276 0.937862,3.431281 l -1.035731,1.035737 h -1.773603 c -1.139919,0 -1.972538,-0.198938 -2.330405,-0.556807 z m 10.42745,0.386811 c 0,-0.0935 0.255465,-0.808458 0.567698,-1.588801 l 0.567689,-1.418807 -0.339951,-1.973186 -0.339958,-1.9731855 1.101002,0.1072604 1.101003,0.1072604 0.177165,1.1751269 0.177166,1.1751268 1.221083,-1.2637095 c 0.765924,-0.7926568 1.554576,-1.2637067 2.115755,-1.2637067 h 0.894664 l -2.134099,2.2145682 c -1.173758,1.218013 -2.402298,2.812503 -2.730098,3.54331 l -0.596,1.328742 h -0.891556 c -0.490357,0 -0.891563,-0.0765 -0.891563,-0.169996 z m 8.160826,-0.09575 c 0.0059,-0.146161 0.614587,-1.700789 1.352039,-3.454727 L 92.334447,8.7430113 93.334303,8.6261899 94.334159,8.5093677 94.106737,9.102021 c -0.125079,0.3259594 -0.323755,0.976462 -0.441489,1.445563 l -0.214067,0.85291 h 0.952744 0.952744 l 0.556743,-1.4173242 0.556735,-1.417324 h 1.014 1.013999 L 97.932774,9.894587 c -0.310955,0.730808 -0.979186,2.325297 -1.484964,3.54331 l -0.919593,2.214569 h -0.982028 -0.982021 l 0.513418,-1.228778 c 0.674218,-1.613653 0.676699,-1.60587 -0.511108,-1.60587 H 92.54196 l -0.567099,1.417324 -0.567107,1.417324 h -0.888692 c -0.488785,0 -0.88365,-0.119587 -0.877486,-0.265749 z m 7.601943,-0.427289 c 0.120982,-0.38117 0.759789,-1.935797 1.419568,-3.454727 l 1.199602,-2.7616897 2.501951,-0.1041054 c 1.37608,-0.057261 2.49951,0.022463 2.49653,0.1771655 -0.0143,0.7447897 -0.67534,1.1280725 -2.12332,1.2312636 l -1.58562,0.113 -0.11761,0.620079 -0.11763,0.62008 h 1.11496 1.11495 l -0.1175,0.620079 c -0.0837,0.441746 -0.52297,0.653147 -1.5273,0.735058 -1.28422,0.104739 -1.930634,0.50812 -1.945043,1.213762 -0.003,0.146162 0.697163,0.265749 1.555893,0.265749 h 1.56132 l -0.18532,0.708662 -0.18532,0.708662 h -2.640038 -2.640031 z m 6.377961,0 c 0.12098,-0.38117 0.75967,-1.935797 1.41931,-3.454727 l 1.19936,-2.7616897 2.10672,-0.1044221 2.10673,-0.1044228 0.57264,0.5726461 c 0.83131,0.8313026 0.70948,1.5026915 -0.49035,2.7025245 l -1.06299,1.062993 v 1.390068 1.390068 h -1.063 -1.06299 v -1.417324 c 0,-0.974467 -0.15404,-1.417324 -0.49302,-1.417324 -0.27116,0 -0.74822,0.637795 -1.06012,1.417324 l -0.56711,1.417324 h -0.91257 -0.91257 z m 5.62566,-3.907465 c 0.44349,-0.432819 -0.0597,-1.0687932 -0.84568,-1.0687932 -0.59314,0 -1.40888,0.9319672 -1.40888,1.6096082 0,0.301677 1.84471,-0.140824 2.25456,-0.540815 z m 1.81529,3.907465 c 0.12098,-0.38117 0.75961,-1.935797 1.41917,-3.454727 l 1.19921,-2.7616897 1.96162,-0.10599 c 3.4085,-0.1841672 4.37606,1.1306717 2.33441,3.1723157 l -1.06299,1.062993 v 1.390068 1.390068 h -1.06299 -1.063 v -1.417324 c 0,-0.974467 -0.15404,-1.417324 -0.49302,-1.417324 -0.27116,0 -0.74822,0.637795 -1.06012,1.417324 l -0.56711,1.417324 h -0.91257 -0.91257 z m 5.62567,-3.922216 c 0.44772,-0.415355 -0.0647,-1.0540422 -0.84569,-1.0540422 -0.69947,0 -1.55711,1.1509842 -1.15629,1.5517982 0.25519,0.255194 1.53273,-0.06244 2.00198,-0.497756 z m 1.28874,4.409962 c 0,-0.11291 1.07628,-1.702021 2.39174,-3.531356 l 2.39173,-3.3260652 1.16763,-0.011951 1.16763,-0.011951 -0.17882,1.1515758 c -0.0983,0.6333664 -0.27771,2.2278564 -0.39858,3.5433104 l -0.21978,2.391734 h -1.00161 -1.00162 l 0.18532,-0.708662 0.18532,-0.708662 h -1.19625 c -0.81251,0 -1.33823,0.227331 -1.63883,0.708662 -0.39374,0.630485 -1.85388,1.026946 -1.85388,0.503374 z m 4.95276,-3.780932 -0.008,-1.151576 -0.69291,0.885828 c -0.88155,1.127009 -0.88155,1.417324 0,1.417324 h 0.70866 l -0.008,-1.151576 z m 2.38553,3.277562 c 0.11833,-0.452507 0.48331,-0.708662 1.00973,-0.708662 0.99243,0 1.55556,-0.749245 2.66784,-3.549558 l 0.84196,-2.1197382 h 0.98055 c 0.5393,0 0.98054,0.063027 0.98054,0.1400641 0,0.5890731 -2.34989,5.5159651 -2.93292,6.1493111 l -0.73392,0.797245 h -1.49955 -1.49955 z m 4.70897,0.585067 c 0,-0.06798 0.62706,-1.622604 1.39348,-3.454727 l 1.39347,-3.3311327 2.53325,-0.1046922 2.53325,-0.104693 -0.12075,0.6361894 -0.12074,0.6361888 -1.7655,0.1771655 -1.76551,0.1771652 -0.11764,0.620079 -0.11763,0.62008 h 1.2786 1.27861 l -0.37927,0.708662 -0.37926,0.708662 h -1.36353 -1.36353 l -0.18532,0.708662 -0.18532,0.708662 h 1.59922 1.59923 l -0.21507,0.560476 c -0.1183,0.308262 -0.21508,0.62716 -0.21508,0.708662 0,0.0815 -1.19587,0.148186 -2.65748,0.148186 -1.46162,0 -2.65748,-0.05562 -2.65748,-0.123595 z m 7.16546,-0.427994 c -0.43313,-0.303374 -0.78751,-0.683408 -0.78751,-0.844521 0,-0.455398 1.8981,-0.708986 2.37223,-0.316931 0.52184,0.431503 2.07159,0.250385 2.01747,-0.23578 -0.0217,-0.194882 -0.61962,-0.634621 -1.32874,-0.977198 l -1.2893,-0.622868 v -1.034487 c 0,-2.0399806 3.62559,-3.3804169 5.47854,-2.0255032 1.0845,0.7930031 0.33272,1.3956642 -1.41421,1.1336962 -1.98575,-0.2977814 -2.41713,0.350657 -0.70827,1.064665 1.44034,0.601813 1.78176,1.175973 1.46049,2.456043 -0.43222,1.722105 -4.08404,2.605286 -5.8007,1.402884 z M 7.5672031,4.397031 C 7.3527766,4.2538532 6.9932827,3.7870605 6.7683283,3.359713 L 6.359324,2.5827175 6.7612491,1.7005899 C 7.5860712,-0.10970126 11.053395,-0.41750269 12.198862,1.217881 12.804106,2.0819866 12.907177,3.1060718 12.419256,3.4076237 12.242547,3.5168352 12.179069,3.2960685 12.27819,2.917031 12.53104,1.9501164 10.916882,0.41623297 9.6465097,0.41623297 c -2.2012992,0 -3.3563009,2.09297643 -1.9888488,3.60399213 0.6110999,0.6752604 0.5759325,0.8217644 -0.090458,0.3768059 z"
     style="fill:#273290;fill-opacity:1;stroke:#ffffff;stroke-width:0.22500001;stroke-miterlimit:4;stroke-dasharray:none;stroke-opacity:1" />
</svg>
