<?xml version="1.0" encoding="UTF-8" standalone="no"?>
<svg
   xmlns:dc="http://purl.org/dc/elements/1.1/"
   xmlns:cc="http://creativecommons.org/ns#"
   xmlns:rdf="http://www.w3.org/1999/02/22-rdf-syntax-ns#"
   xmlns:svg="http://www.w3.org/2000/svg"
   xmlns="http://www.w3.org/2000/svg"
   xmlns:sodipodi="http://sodipodi.sourceforge.net/DTD/sodipodi-0.dtd"
   xmlns:inkscape="http://www.inkscape.org/namespaces/inkscape"
   inkscape:version="1.0 (4035a4fb49, 2020-05-01)"
   sodipodi:docname="Sayer-Lack-logo.svg"
   id="svg46"
   preserveAspectRatio="xMidYMid meet"
   viewBox="0 0 150.26504 57"
   height="76"
   width="200.35338"
   version="1.0">
  <metadata
     id="metadata52">
    <rdf:RDF>
      <cc:Work
         rdf:about="">
        <dc:format>image/svg+xml</dc:format>
        <dc:type
           rdf:resource="http://purl.org/dc/dcmitype/StillImage" />
        <dc:title></dc:title>
      </cc:Work>
    </rdf:RDF>
  </metadata>
  <defs
     id="defs50">
    <rect
       id="rect884"
       height="96.0812"
       width="607.53503"
       y="561.04059"
       x="597.7099" />
    <rect
       x="597.7099"
       y="561.04059"
       width="55.902966"
       height="74.108437"
       id="rect884-0" />
    <rect
       x="597.7099"
       y="561.04059"
       width="607.53503"
       height="96.0812"
       id="rect927" />
  </defs>
  <sodipodi:namedview
     units="px"
     inkscape:current-layer="svg46"
     inkscape:window-maximized="1"
     inkscape:window-y="-8"
     inkscape:window-x="-8"
     inkscape:cy="66.99074"
     inkscape:cx="109.54671"
     inkscape:zoom="2.1931178"
     showgrid="false"
     id="namedview48"
     inkscape:window-height="705"
     inkscape:window-width="1366"
     inkscape:pageshadow="2"
     inkscape:pageopacity="0"
     guidetolerance="10"
     gridtolerance="10"
     objecttolerance="10"
     borderopacity="1"
     bordercolor="#666666"
     pagecolor="#ffffff"
     inkscape:document-rotation="0" />
  <g
     transform="scale(0.15177146)"
     id="g979">
    <g
       transform="matrix(0.1,0,0,-0.1,-48.948829,482.375)"
       fill="#000000"
       stroke="none"
       id="g44"
       style="fill:#007ec8;fill-opacity:1">
      <path
         d="m 581,4799 c -46,-28 -68,-56 -80,-106 -16,-62 -15,-2489 1,-2535 17,-50 45,-86 81,-103 29,-13 342,-15 2836,-13 l 2803,3 4,38 c 9,101 102,301 202,435 62,83 286,302 309,302 4,0 16,9 27,19 23,21 175,114 241,148 22,11 63,32 90,46 28,14 68,32 90,40 22,8 86,33 142,55 56,22 119,43 140,47 21,4 43,10 48,14 19,14 141,45 265,68 14,2 34,8 45,13 11,5 54,14 95,20 41,6 98,15 125,21 28,5 111,16 185,24 74,8 149,17 165,20 17,3 50,10 75,15 25,5 92,18 150,29 160,31 261,57 374,95 43,14 82,26 87,26 5,0 32,11 61,24 29,14 67,28 83,32 17,3 46,15 65,24 19,10 58,29 85,41 44,20 90,45 200,109 187,108 395,297 505,459 19,28 40,57 46,64 14,16 104,201 104,214 0,6 7,24 16,42 9,18 19,51 22,74 3,23 11,51 17,62 7,11 15,50 18,88 l 5,67 H 5461 615 Z m 1202,-290 c 184,-28 299,-95 393,-229 47,-68 81,-189 75,-267 -1,-9 -24,-13 -78,-14 -43,0 -114,-4 -158,-8 -90,-9 -115,-1 -115,34 0,23 -18,74 -30,85 -3,3 -13,17 -22,31 -21,33 -85,63 -169,79 -56,10 -79,9 -140,-3 -91,-19 -116,-29 -154,-60 -27,-23 -30,-31 -29,-83 0,-53 3,-59 37,-89 36,-31 178,-84 327,-121 36,-8 80,-20 98,-25 17,-5 47,-13 65,-18 135,-35 272,-124 339,-220 55,-79 72,-145 72,-281 0,-124 -14,-182 -60,-252 -13,-21 -24,-41 -24,-46 0,-17 -120,-120 -162,-140 -120,-56 -157,-66 -310,-82 -75,-8 -124,-7 -220,5 -145,17 -153,19 -230,57 -181,88 -301,255 -322,451 -6,54 -5,58 17,66 31,12 283,35 302,27 8,-3 15,-17 15,-31 0,-14 4,-33 9,-43 5,-9 16,-33 24,-52 54,-123 152,-180 312,-180 125,0 205,28 259,91 38,45 53,104 42,162 -6,29 -60,97 -78,97 -5,0 -27,9 -51,19 -37,17 -109,37 -312,87 -54,13 -133,42 -221,80 -55,24 -151,101 -182,146 -65,95 -84,154 -85,263 -2,128 37,220 134,316 107,107 248,156 462,158 54,1 131,-4 170,-10 z m 1337,-454 c 89,-7 126,-19 202,-62 82,-48 121,-100 147,-198 7,-24 11,-175 11,-387 0,-356 5,-413 42,-497 10,-24 18,-53 16,-65 -3,-20 -8,-21 -150,-24 -123,-2 -149,0 -162,13 -9,9 -16,25 -16,35 0,10 -4,22 -10,25 -5,3 -10,15 -10,26 0,26 -9,24 -50,-10 -20,-16 -69,-46 -110,-67 l -75,-38 h -130 c -141,-1 -168,6 -245,58 -63,42 -96,78 -127,139 -25,47 -28,62 -28,157 1,90 4,112 25,154 27,57 100,130 150,153 93,41 131,53 211,68 99,18 277,61 312,74 24,9 27,16 27,56 0,109 -69,147 -236,132 -76,-7 -104,-25 -136,-86 -12,-24 -29,-46 -36,-49 -20,-7 -271,35 -286,49 -6,5 -5,17 1,31 6,13 17,39 24,58 14,39 74,124 110,156 35,31 107,68 162,84 56,15 195,29 252,24 22,-2 74,-6 115,-9 z m 2455,-15 c 109,-47 143,-66 192,-113 73,-68 117,-139 147,-234 36,-113 48,-187 44,-278 l -3,-80 -385,-3 c -211,-1 -388,-6 -393,-11 -14,-14 33,-147 65,-185 41,-50 102,-76 177,-76 91,0 143,33 177,115 9,22 20,43 25,46 5,3 49,-3 97,-12 48,-10 115,-21 150,-25 38,-4 66,-12 69,-20 7,-18 -42,-118 -83,-173 -43,-56 -128,-122 -196,-151 -97,-41 -335,-51 -443,-17 -136,43 -243,135 -307,265 -55,114 -67,173 -67,337 -1,143 9,202 47,301 57,148 209,287 357,323 54,14 292,7 330,-9 z m 1280,-9 c 56,-32 60,-37 48,-63 -6,-13 -18,-45 -26,-73 -35,-113 -60,-175 -71,-175 -6,0 -35,9 -64,20 -134,51 -226,-3 -260,-153 -10,-44 -15,-164 -19,-407 -4,-241 -9,-347 -17,-352 -20,-13 -301,-9 -314,4 -17,17 -17,1179 0,1196 8,8 56,12 149,12 158,0 162,-2 158,-79 -3,-61 5,-72 24,-34 21,39 79,93 124,115 55,27 211,20 268,-11 z m -2937,-8 c 6,-10 29,-76 52,-148 24,-71 46,-139 51,-150 12,-29 40,-115 49,-150 5,-16 31,-95 59,-175 28,-80 51,-153 51,-162 0,-37 17,-15 34,45 11,34 23,66 27,72 5,5 9,16 9,25 0,19 36,137 49,160 5,9 12,31 16,50 4,19 15,55 25,80 9,25 36,106 59,180 65,206 38,185 229,188 181,3 186,1 159,-60 -8,-18 -19,-46 -25,-63 -41,-116 -85,-237 -101,-275 -10,-25 -24,-63 -30,-85 -13,-41 -26,-76 -42,-107 -5,-10 -9,-25 -9,-33 0,-8 -9,-34 -19,-58 -11,-23 -31,-76 -46,-117 -15,-41 -43,-118 -62,-170 -19,-52 -38,-109 -42,-125 -8,-29 -33,-91 -52,-127 -5,-10 -9,-24 -9,-31 0,-16 -74,-197 -98,-241 -36,-65 -91,-122 -143,-148 -92,-46 -126,-52 -272,-52 -165,0 -168,2 -178,101 -4,38 -10,91 -14,120 l -7,52 103,-6 104,-5 50,33 c 40,27 57,48 88,109 20,41 34,82 31,90 -18,43 -97,251 -111,290 -8,25 -18,50 -22,55 -4,6 -13,30 -21,55 -7,25 -21,64 -31,87 -11,24 -19,45 -19,49 0,3 -11,33 -24,67 -39,98 -101,263 -141,372 -20,55 -46,121 -57,147 -33,78 -32,78 156,78 147,0 166,-2 174,-17 z"
         id="path2"
         style="fill:#007ec8;fill-opacity:1" />
      <path
         d="m 3095,3380 c -16,-5 -77,-20 -135,-34 -120,-30 -146,-41 -177,-75 -57,-64 -26,-172 61,-212 53,-24 93,-24 158,1 63,24 98,52 127,103 17,31 21,54 21,132 0,102 1,100 -55,85 z"
         id="path4"
         style="fill:#007ec8;fill-opacity:1" />
      <path
         d="m 5334,3793 c -35,-7 -105,-73 -124,-117 -9,-23 -20,-62 -24,-88 l -7,-48 h 225 226 v 28 c 0,45 -48,150 -83,182 -48,44 -127,60 -213,43 z"
         id="path6"
         style="fill:#007ec8;fill-opacity:1" />
      <path
         d="m 9845,2738 c -106,-35 -137,-53 -187,-107 -42,-45 -58,-72 -75,-129 -28,-90 -29,-131 -2,-213 37,-113 102,-180 218,-227 60,-24 152,-29 198,-11 131,54 179,93 226,183 29,56 32,69 32,156 0,85 -3,101 -29,153 -31,62 -89,128 -134,151 -47,24 -154,56 -186,55 -17,0 -44,-5 -61,-11 z m 144,-62 c 100,-27 165,-87 202,-188 40,-110 14,-221 -73,-304 -50,-49 -83,-66 -158,-83 -50,-12 -63,-11 -125,8 -156,47 -242,186 -210,343 18,92 105,199 174,214 14,3 40,10 56,14 45,12 75,11 134,-4 z"
         id="path8"
         style="fill:#007ec8;fill-opacity:1" />
      <path
         d="m 9767,2573 c -4,-3 -7,-87 -7,-185 v -178 h 30 30 v 75 c 0,88 9,97 66,68 26,-13 46,-35 69,-78 30,-55 36,-60 69,-63 20,-2 36,-1 36,2 0,5 -54,97 -83,140 -10,15 -9,20 1,23 7,3 25,15 40,28 22,19 27,32 27,68 0,54 -20,79 -74,95 -41,13 -193,16 -204,5 z m 191,-59 c 26,-18 29,-60 5,-86 -12,-14 -31,-18 -80,-18 h -63 v 53 c 0,30 3,57 7,60 13,13 109,7 131,-9 z"
         id="path10"
         style="fill:#007ec8;fill-opacity:1" />
      <path
         d="m 5744,1817 c -2,-7 -3,-118 -2,-247 l 3,-235 37,-2 38,-2 2,187 c 2,103 7,187 12,187 10,0 27,-52 56,-170 12,-49 29,-116 38,-147 l 17,-58 h 41 c 39,0 41,2 51,38 19,66 44,165 63,245 33,143 44,120 48,-103 l 4,-178 h 34 34 v 249 250 l -67,-3 -67,-3 -16,-60 c -9,-33 -19,-67 -23,-75 -3,-8 -8,-28 -12,-45 -25,-120 -37,-155 -54,-155 -4,0 -20,51 -35,113 -15,61 -32,120 -37,129 -5,10 -9,24 -9,32 0,8 -5,27 -12,41 -10,23 -16,25 -75,25 -42,0 -65,-4 -69,-13 z"
         id="path12"
         style="fill:#007ec8;fill-opacity:1" />
      <path
         d="m 6754,1816 c -3,-8 -4,-25 -2,-38 2,-19 9,-23 41,-25 37,-1 37,-1 37,38 0,38 -1,39 -35,39 -22,0 -38,-6 -41,-14 z"
         id="path14"
         style="fill:#007ec8;fill-opacity:1" />
      <path
         d="m 7885,1819 c -3,-8 -4,-120 -3,-249 l 3,-235 h 40 40 l 3,90 c 2,56 7,92 15,97 7,4 49,8 95,8 70,0 88,4 121,25 22,13 42,32 44,42 25,88 14,153 -33,198 -30,29 -31,29 -175,33 -118,4 -146,2 -150,-9 z m 239,-73 c 38,-16 53,-55 37,-97 -16,-43 -34,-50 -113,-47 l -73,3 -3,64 c -2,35 -1,70 2,77 7,19 106,18 150,0 z"
         id="path16"
         style="fill:#007ec8;fill-opacity:1" />
      <path
         d="m 8370,1791 c 0,-40 0,-40 38,-38 35,2 37,4 37,37 0,33 -2,35 -37,38 l -38,3 z"
         id="path18"
         style="fill:#007ec8;fill-opacity:1" />
      <path
         d="m 4702,1578 3,-243 h 170 170 v 30 30 l -125,3 c -84,2 -127,7 -132,15 -4,7 -8,101 -8,210 v 197 h -40 -40 z"
         id="path20"
         style="fill:#007ec8;fill-opacity:1" />
      <path
         d="m 9053,1787 c -24,-17 -32,-31 -35,-57 -2,-27 -8,-36 -25,-38 -34,-5 -32,-59 2,-72 25,-9 25,-11 25,-122 0,-146 3,-155 52,-170 53,-16 92,-2 96,34 3,24 -1,27 -30,30 l -33,3 -3,109 c -3,114 3,132 41,120 17,-5 18,-3 20,39 1,18 -4,23 -31,25 l -32,3 v 60 c 0,32 -3,59 -7,58 -5,0 -22,-11 -40,-22 z"
         id="path22"
         style="fill:#007ec8;fill-opacity:1" />
      <path
         d="m 5167,1659 c -45,-37 -47,-55 -5,-63 24,-5 36,-1 50,14 41,43 119,32 126,-18 5,-33 -13,-49 -61,-55 -83,-11 -107,-20 -137,-50 -50,-51 -33,-124 37,-153 44,-19 67,-18 115,6 49,24 64,25 71,6 3,-8 18,-13 39,-12 27,2 32,6 29,22 -2,10 -6,81 -10,156 -3,75 -8,138 -11,141 -38,30 -60,37 -130,37 -69,0 -78,-2 -113,-31 z m 171,-197 c 3,-35 -1,-46 -24,-67 -15,-14 -38,-25 -51,-25 -24,0 -73,40 -73,60 0,28 100,83 135,76 6,-2 11,-21 13,-44 z"
         id="path24"
         style="fill:#007ec8;fill-opacity:1" />
      <path
         d="m 6393,1667 c -88,-60 -98,-223 -18,-306 17,-17 82,-41 114,-41 48,0 103,24 127,55 13,18 24,34 24,37 0,3 -16,9 -36,12 -30,6 -39,3 -59,-18 -46,-49 -129,-19 -137,50 l -3,29 123,3 123,3 -6,43 c -13,109 -63,156 -163,155 -41,0 -66,-6 -89,-22 z m 157,-67 c 37,-52 29,-60 -60,-60 -77,0 -80,1 -80,23 0,24 32,61 60,69 28,9 60,-5 80,-32 z"
         id="path26"
         style="fill:#007ec8;fill-opacity:1" />
      <path
         d="m 6750,1487 c 0,-185 -2,-205 -18,-220 -10,-10 -26,-17 -34,-17 -16,0 -33,-44 -23,-59 10,-17 60,-19 97,-4 25,10 40,24 47,44 6,17 11,125 11,242 l 2,212 -41,3 -41,3 z"
         id="path28"
         style="fill:#007ec8;fill-opacity:1" />
      <path
         d="m 7015,1666 c -66,-40 -93,-114 -75,-203 15,-73 47,-108 117,-130 46,-14 61,-15 100,-5 62,17 99,46 123,95 43,88 13,197 -66,243 -57,34 -143,33 -199,0 z m 158,-56 c 14,-11 31,-36 37,-55 38,-116 -78,-221 -158,-142 -24,25 -27,35 -27,98 0,65 2,73 28,95 35,30 85,31 120,4 z"
         id="path30"
         style="fill:#007ec8;fill-opacity:1" />
      <path
         d="m 7400,1685 c -1,-3 -1,-83 -1,-177 l -1,-173 36,-3 36,-3 v 83 c 0,88 21,186 42,200 7,4 28,7 47,6 35,-3 49,12 50,55 1,27 -84,24 -99,-3 -6,-11 -17,-20 -25,-20 -8,0 -15,9 -15,20 0,16 -7,20 -35,20 -19,0 -35,-2 -35,-5 z"
         id="path32"
         style="fill:#007ec8;fill-opacity:1" />
      <path
         d="m 8370,1511 v -180 l 38,2 37,2 v 175 175 l -37,3 -38,3 z"
         id="path34"
         style="fill:#007ec8;fill-opacity:1" />
      <path
         d="m 8562,1513 3,-178 h 40 40 l 5,120 c 6,151 18,175 89,175 59,0 66,-15 71,-162 l 5,-133 38,-2 37,-2 v 140 c 0,145 -5,170 -44,201 -31,25 -116,24 -149,-2 -14,-11 -32,-20 -41,-20 -9,0 -16,8 -16,20 0,17 -7,20 -40,20 h -40 z"
         id="path36"
         style="fill:#007ec8;fill-opacity:1" />
      <path
         d="m 9252,1537 c 3,-173 8,-186 75,-208 40,-13 121,4 130,28 8,20 30,16 36,-8 4,-16 12,-20 39,-17 l 33,3 3,178 2,177 h -40 -40 v -127 c 0,-149 -10,-171 -76,-180 -32,-4 -43,-1 -59,17 -18,19 -20,38 -22,154 l -2,131 -41,3 -41,3 z"
         id="path38"
         style="fill:#007ec8;fill-opacity:1" />
      <path
         d="m 9699,1686 c -3,-3 -3,-81 -2,-173 2,-92 3,-172 3,-176 0,-5 17,-7 38,-5 l 37,3 2,105 c 2,58 5,115 8,127 8,35 34,53 75,53 37,0 49,14 50,58 0,21 -83,15 -103,-8 -9,-11 -24,-20 -32,-20 -8,0 -15,9 -15,20 0,15 -7,20 -28,20 -16,0 -31,-2 -33,-4 z"
         id="path40"
         style="fill:#007ec8;fill-opacity:1" />
      <path
         d="m 10004,1656 c -36,-36 -43,-56 -20,-56 8,0 21,-2 28,-5 8,-3 24,3 37,14 46,40 107,36 132,-10 15,-29 -12,-56 -64,-62 -77,-10 -104,-19 -131,-42 -24,-21 -27,-29 -24,-76 2,-42 8,-56 28,-71 41,-30 89,-33 143,-8 44,21 49,21 66,6 9,-9 32,-16 50,-16 28,0 32,3 25,18 -4,9 -9,73 -11,142 -2,69 -6,134 -8,145 -8,36 -56,55 -140,55 -74,0 -78,-1 -111,-34 z m 174,-158 c 28,-28 0,-98 -47,-117 -36,-16 -67,-7 -87,25 -15,22 -15,26 0,50 10,14 23,26 29,28 7,2 26,8 42,14 41,14 49,14 63,0 z"
         id="path42"
         style="fill:#007ec8;fill-opacity:1" />
    </g>
    <path
       style="fill:#7aba03;fill-opacity:1;stroke:#7aba03;stroke-width:0.75px;stroke-linecap:butt;stroke-linejoin:miter;stroke-opacity:1"
       d="m 981.85117,0.375 c -2.6325,32.60061 -14.0916,62.54082 -30.4591,85.99902 -33.167,47.53553 -93.7591,68.39376 -148.3717,82.7158 -25.6676,6.7313 -57.3568,9.04676 -81.1063,18.34862 -16.8987,6.61863 -83.89129,36.02069 -77.57236,90.83487 L 573.25118,277.875 c 11.82586,-81.28082 120.58339,-116.07222 166.10609,-123.9842 21.1818,-3.68147 99.4917,-11.46249 143.5173,-33.20761 30.7291,-15.17771 70.9835,-47.76527 79.2883,-65.4609 7.5241,-16.03208 16.438,-35.96604 19.6883,-54.84729 z"
       id="path955"
       sodipodi:nodetypes="csssccsasc" />
    <path
       sodipodi:nodetypes="ccsscczsscc"
       id="path955-9"
       d="m 981.85117,0.375 -0.7333,22.87121 c -1.1331,31.55978 -38.8005,98.41293 -79.3835,129.05135 -29.9216,22.58956 -95.1835,39.22176 -107.9203,41.20307 -29.5613,4.59848 -84.7005,30.35681 -78.3815,85.17099 l -71.09056,-0.39831 c -4.3944,-80.77764 117.96756,-103.58385 147.66626,-109.20515 29.6987,-5.6213 68.1501,-15.14625 96.8225,-30.59047 49.3911,-26.60416 73.2762,-65.60611 78.8837,-81.23885 11.5188,-32.11292 14.137,-56.86384 14.137,-56.86384 z"
       style="fill:#f6c519;fill-opacity:1;stroke:#f9c51a;stroke-width:0.75px;stroke-linecap:butt;stroke-linejoin:miter;stroke-opacity:1" />
    <path
       sodipodi:nodetypes="cssscczssc"
       id="path955-8"
       d="m 981.21367,22.77639 c -1.7134,29.4587 -9.0334,61.71014 -19.6859,82.90754 -21.5862,42.95424 -59.8711,60.84754 -90.5529,82.97172 -12.8689,9.27963 -45.0645,24.51034 -51.8374,29.33594 -11.2618,8.02379 -44.3996,15.42694 -39.0082,60.48247 l -64.7088,0.25476 c -5.1337,-74.27693 83.3613,-86.65398 104.9784,-92.41272 21.6171,-5.75874 68.4795,-28.34869 96.5353,-49.62958 15.7297,-11.93124 26.6551,-27.3056 36.483,-43.46886 5.4927,-9.03338 26.5249,-52.9578 27.7965,-70.44127 z"
       style="fill:#f87e00;fill-opacity:1;stroke:#f87e00;stroke-width:0.575163px;stroke-linecap:butt;stroke-linejoin:miter;stroke-opacity:1" />
    <rect
       rx="0"
       ry="0"
       y="207.27727"
       x="904.64417"
       height="73.374771"
       width="84.198181"
       id="rect888-4"
       style="fill:#ffffff;fill-opacity:1;fill-rule:evenodd;stroke:#ffffff;stroke-width:2.46404;stroke-opacity:1;paint-order:stroke fill markers" />
    <circle
       style="fill:none;fill-rule:evenodd;stroke:#007ec8;stroke-width:5.45925;stroke-miterlimit:4;stroke-dasharray:none;stroke-opacity:1;paint-order:stroke fill markers"
       id="path57"
       cx="946.74316"
       cy="243.96468"
       r="33.75642" />
    <rect
       style="fill:#ffffff;fill-opacity:1;fill-rule:evenodd;stroke:#ffffff;stroke-width:6.63737;stroke-opacity:1;paint-order:stroke fill markers"
       id="rect888"
       width="580.8858"
       height="77.170998"
       x="404.46545"
       y="295.07501"
       ry="0"
       rx="0" />
    <text
       xml:space="preserve"
       id="text882"
       style="font-size:30px;line-height:1.25;font-family:sans-serif;letter-spacing:0.3075px;white-space:pre;shape-inside:url(#rect884);fill:#007ec8;fill-opacity:1;"
       transform="matrix(0.92878764,0,0,0.92878764,-139.22767,-240.57613)"><tspan
         x="597.70898"
         y="634.90288"><tspan
           style="font-style:normal;font-variant:normal;font-weight:normal;font-stretch:normal;font-size:82px;font-family:Arial;-inkscape-font-specification:Arial;fill:#007ec8;fill-opacity:1">La Mejor Pintura</tspan></tspan></text>
    <text
       transform="matrix(0.81849937,0,0,0.81849937,438.18367,-243.9501)"
       style="font-size:30px;line-height:1.25;font-family:sans-serif;letter-spacing:0.3075px;white-space:pre;shape-inside:url(#rect884-0);fill:#007ec8;fill-opacity:1;stroke:#007ec8;stroke-opacity:1;"
       id="text882-4"
       xml:space="preserve"><tspan
         x="597.70898"
         y="619.23002"><tspan
           style="font-style:normal;font-variant:normal;font-weight:normal;font-stretch:normal;font-size:64.6003px;font-family:Arial;-inkscape-font-specification:Arial;fill:#007ec8;fill-opacity:1;stroke:#007ec8;stroke-opacity:1">R</tspan></tspan></text>
  </g>
</svg>
