<?xml version="1.0" encoding="UTF-8" standalone="no"?>
<svg
   xmlns:dc="http://purl.org/dc/elements/1.1/"
   xmlns:cc="http://creativecommons.org/ns#"
   xmlns:rdf="http://www.w3.org/1999/02/22-rdf-syntax-ns#"
   xmlns:svg="http://www.w3.org/2000/svg"
   xmlns="http://www.w3.org/2000/svg"
   xmlns:sodipodi="http://sodipodi.sourceforge.net/DTD/sodipodi-0.dtd"
   xmlns:inkscape="http://www.inkscape.org/namespaces/inkscape"
   sodipodi:docname="Icono Instalacion.svg"
   inkscape:version="1.0 (4035a4fb49, 2020-05-01)"
   id="svg73"
   version="1.1"
   viewBox="0 0 32.808334 32.808334"
   height="32.808334mm"
   width="32.808334mm">
  <defs
     id="defs67" />
  <sodipodi:namedview
     inkscape:window-maximized="1"
     inkscape:window-y="-8"
     inkscape:window-x="-8"
     inkscape:window-height="705"
     inkscape:window-width="1366"
     inkscape:snap-tangential="false"
     inkscape:snap-perpendicular="false"
     showgrid="false"
     inkscape:document-rotation="0"
     inkscape:current-layer="layer1"
     inkscape:document-units="mm"
     inkscape:cy="62.946882"
     inkscape:cx="44.148703"
     inkscape:zoom="4.1317978"
     inkscape:pageshadow="2"
     inkscape:pageopacity="0.0"
     borderopacity="1.0"
     bordercolor="#666666"
     pagecolor="#ffffff"
     id="base"
     showguides="false">
    <inkscape:grid
       empopacity="0.19215686"
       empcolor="#000000"
       id="grid164"
       type="xygrid" />
  </sodipodi:namedview>
  <metadata
     id="metadata70">
    <rdf:RDF>
      <cc:Work
         rdf:about="">
        <dc:format>image/svg+xml</dc:format>
        <dc:type
           rdf:resource="http://purl.org/dc/dcmitype/StillImage" />
        <dc:title />
      </cc:Work>
    </rdf:RDF>
  </metadata>
  <g
     transform="translate(-127.68884,-132.41319)"
     id="layer1"
     inkscape:groupmode="layer"
     inkscape:label="Capa 1">
    <rect
       inkscape:export-ydpi="96"
       inkscape:export-xdpi="96"
       inkscape:export-filename="C:\Users\aleja\Desktop\Logo carpinteria FABRICACION.png"
       ry="16.404167"
       y="132.41319"
       x="127.68884"
       height="32.808334"
       width="32.808334"
       id="rect981"
       style="fill:#ff9955;fill-opacity:1;fill-rule:evenodd;stroke:none;stroke-width:1.02652;paint-order:stroke fill markers" />
    <path
       style="fill:#1a1a1a;fill-opacity:1;stroke-width:0.0156514"
       d="m 140.49375,155.16167 c -0.17343,-0.0316 -0.28516,-0.11014 -0.35826,-0.25668 l -0.0488,-0.0975 v -0.88049 -0.88045 l 0.0509,-0.0988 c 0.0548,-0.10571 0.15349,-0.19465 0.2592,-0.23358 0.0458,-0.0159 0.29273,-0.0222 1.22341,-0.0253 l 1.1659,-0.006 0.35852,0.36252 c 0.36319,0.36731 0.46611,0.45153 0.63317,0.51828 0.0776,0.0317 0.11647,0.0355 0.31522,0.0355 0.19906,0 0.23767,-0.003 0.31521,-0.0355 0.16869,-0.0674 0.2823,-0.15887 0.64887,-0.52222 l 0.36165,-0.35858 1.15649,0.006 c 0.92265,0.003 1.16812,0.009 1.214,0.0253 0.10571,0.0389 0.20445,0.12787 0.2592,0.23358 l 0.0509,0.0988 v 0.88048 0.88049 l -0.0487,0.0975 c -0.0534,0.10665 -0.16014,0.20478 -0.2611,0.23959 -0.0461,0.0158 -0.78589,0.019 -3.65766,0.0222 -1.97979,7.2e-4 -3.61725,-7.2e-4 -3.63877,-0.006 z m 5.56498,-0.6482 c 0.057,-0.0158 0.13892,-0.0978 0.16235,-0.15984 0.009,-0.0253 0.0158,-0.0798 0.0158,-0.12312 0,-0.0994 -0.0459,-0.18485 -0.13072,-0.24339 -0.0528,-0.0363 -0.0784,-0.0433 -0.16552,-0.0433 -0.11614,0 -0.17153,0.0285 -0.24781,0.12913 -0.037,0.0484 -0.043,0.0709 -0.043,0.16047 0,0.0874 0.006,0.11457 0.043,0.16901 0.0807,0.12217 0.20445,0.15952 0.3651,0.1111 z m 1.2196,0.006 c 0.11615,-0.0316 0.20381,-0.17312 0.19211,-0.3127 -0.006,-0.093 -0.036,-0.14084 -0.12817,-0.21523 -0.0528,-0.0427 -0.0703,-0.0478 -0.16458,-0.0478 -0.086,0 -0.11551,0.006 -0.1614,0.0386 -0.17217,0.11806 -0.18704,0.35683 -0.0316,0.48612 0.0813,0.0671 0.17121,0.0829 0.29211,0.0513 z m -3.28581,-1.53055 c -0.0488,-0.0158 -0.30097,-0.26111 -1.19431,-1.15363 -0.70261,-0.70206 -1.14106,-1.15166 -1.15505,-1.18442 -0.0324,-0.0756 -0.0285,-0.15477 0.0157,-0.24466 0.0425,-0.0902 0.0741,-0.12217 0.15474,-0.15604 0.0488,-0.019 0.15793,-0.0253 0.70766,-0.0253 h 0.64999 v -1.11178 c 0,-1.2068 -0.003,-1.16766 0.0873,-1.25704 0.1006,-0.0997 0.0719,-0.0966 0.83593,-0.0966 0.76411,0 0.73531,-0.003 0.83592,0.0966 0.0901,0.0893 0.0873,0.0503 0.0873,1.25704 v 1.11178 h 0.65002 c 0.54952,0 0.6589,0.003 0.70761,0.0253 0.0804,0.0334 0.11235,0.0658 0.15475,0.15604 0.0421,0.0896 0.0469,0.16901 0.0157,0.24466 -0.0126,0.0329 -0.45276,0.48222 -1.16204,1.19019 -0.98084,0.97898 -1.14829,1.13977 -1.20215,1.15426 -0.0804,0.0222 -0.1114,0.0222 -0.18705,-0.006 z"
       id="path41" />
    <path
       style="fill:none;fill-opacity:1;stroke:#1a1a1a;stroke-width:1.23643;stroke-miterlimit:4;stroke-dasharray:none;stroke-opacity:1"
       d="m 138.93602,156.32436 c -0.0358,-0.0314 -0.0793,-0.0991 -0.0964,-0.15026 -0.0209,-0.0626 -0.0312,-1.08887 -0.0312,-3.13412 v -3.04097 h -1.06632 -1.06631 l -0.0833,-0.0798 c -0.0688,-0.066 -0.0833,-0.10631 -0.0833,-0.23166 v -0.15183 l 3.72331,-4.15112 c 3.68913,-4.11302 3.72438,-4.15113 3.8406,-4.15113 0.11427,0 0.14093,0.0262 1.02663,1.01195 l 0.90931,1.01196 0.0142,-0.35585 c 0.0139,-0.34969 0.0157,-0.35752 0.10831,-0.44965 l 0.0941,-0.0938 h 0.9326 c 0.63423,0 0.95633,0.012 1.00675,0.0378 0.16332,0.083 0.16598,0.11261 0.16598,1.85288 v 1.59938 l 1.6613,1.85217 c 1.31534,1.46641 1.66495,1.87372 1.67876,1.9557 0.0201,0.11937 -0.047,0.2899 -0.13451,0.34216 -0.036,0.0214 -0.44524,0.0342 -1.11217,0.0342 h -1.05509 v 3.02169 c 0,2.06935 -0.0101,3.05379 -0.0318,3.12363 -0.0696,0.22224 0.3557,0.20567 -5.25499,0.20485 -4.76888,-6.9e-4 -4.36408,0.0697 -5.14652,-0.058 -6e-5,-2e-5 1e-4,-1.6e-4 1e-4,-1.6e-4 z"
       id="path866"
       sodipodi:nodetypes="cssccccsccscccccscsccccscsccsc" />
  </g>
</svg>
