<?xml version="1.0" encoding="UTF-8" standalone="no"?>
<svg
   xmlns:dc="http://purl.org/dc/elements/1.1/"
   xmlns:cc="http://creativecommons.org/ns#"
   xmlns:rdf="http://www.w3.org/1999/02/22-rdf-syntax-ns#"
   xmlns:svg="http://www.w3.org/2000/svg"
   xmlns="http://www.w3.org/2000/svg"
   xmlns:sodipodi="http://sodipodi.sourceforge.net/DTD/sodipodi-0.dtd"
   xmlns:inkscape="http://www.inkscape.org/namespaces/inkscape"
   width="32.808334mm"
   height="32.808334mm"
   viewBox="0 0 32.808334 32.808334"
   version="1.1"
   id="svg73"
   inkscape:version="1.0 (4035a4fb49, 2020-05-01)"
   sodipodi:docname="Icono Reparacion.svg">
  <defs
     id="defs67" />
  <sodipodi:namedview
     id="base"
     pagecolor="#ffffff"
     bordercolor="#666666"
     borderopacity="1.0"
     inkscape:pageopacity="0.0"
     inkscape:pageshadow="2"
     inkscape:zoom="3.810232"
     inkscape:cx="57.293238"
     inkscape:cy="59.015835"
     inkscape:document-units="mm"
     inkscape:current-layer="layer1"
     inkscape:document-rotation="0"
     showgrid="true"
     inkscape:snap-perpendicular="false"
     inkscape:snap-tangential="false"
     inkscape:window-width="1366"
     inkscape:window-height="705"
     inkscape:window-x="-8"
     inkscape:window-y="-8"
     inkscape:window-maximized="1">
    <inkscape:grid
       spacingy="0.39687498"
       spacingx="0.39687498"
       type="xygrid"
       id="grid164"
       empcolor="#000000"
       empopacity="0.19215686" />
  </sodipodi:namedview>
  <metadata
     id="metadata70">
    <rdf:RDF>
      <cc:Work
         rdf:about="">
        <dc:format>image/svg+xml</dc:format>
        <dc:type
           rdf:resource="http://purl.org/dc/dcmitype/StillImage" />
        <dc:title></dc:title>
      </cc:Work>
    </rdf:RDF>
  </metadata>
  <g
     inkscape:label="Capa 1"
     inkscape:groupmode="layer"
     id="layer1"
     transform="translate(-127.68884,-132.41319)">
    <rect
       style="fill:#ff9955;fill-opacity:1;fill-rule:evenodd;stroke:none;stroke-width:1.02652;paint-order:stroke fill markers"
       id="rect981"
       width="32.808334"
       height="32.808334"
       x="127.68884"
       y="132.41319"
       ry="16.404167"
       inkscape:export-filename="C:\Users\aleja\Desktop\Logo carpinteria FABRICACION.png"
       inkscape:export-xdpi="96"
       inkscape:export-ydpi="96" />
    <path
       style="fill:#1a1a1a;fill-opacity:1;stroke-width:0.032037"
       fill="currentColor"
       d="m 152.21114,153.5566 -3.7516,-3.75145 c -0.74006,-0.74003 -1.84535,-0.88419 -2.73599,-0.4453 l -3.41522,-3.41506 v -1.98946 l -4.10081,-3.07547 -2.0504,2.05033 3.0756,4.10063 h 1.98953 l 3.41522,3.41506 c -0.43572,0.8906 -0.29476,1.99585 0.44533,2.7359 l 3.75159,3.75143 c 0.46774,0.46774 1.22384,0.46774 1.68837,0 l 1.68838,-1.6883 c 0.46455,-0.46775 0.46455,-1.22379 0,-1.68831 z m -5.42715,-5.46858 c 0.90664,0 1.75886,0.3524 2.39961,0.99312 l 0.62152,0.62149 c 0.5062,-0.22104 0.98677,-0.52859 1.40325,-0.94507 1.1886,-1.18853 1.59227,-2.86083 1.21424,-4.37935 -0.0705,-0.28832 -0.43253,-0.38764 -0.64397,-0.17619 l -2.38359,2.3835 -2.17537,-0.36201 -0.36201,-2.17527 2.3836,-2.3835 c 0.21144,-0.21142 0.10892,-0.57344 -0.18262,-0.64712 -1.51858,-0.37483 -3.19096,0.029 -4.37633,1.21417 -0.91307,0.91302 -1.34238,2.11759 -1.31995,3.31896 l 2.63029,2.63016 c 0.25949,-0.0608 0.52861,-0.0928 0.79133,-0.0928 z m -3.32872,2.62697 -1.81652,-1.81646 -4.88254,4.88552 c -0.80094,0.8009 -0.80094,2.09838 0,2.89928 0.80094,0.80092 2.09846,0.80092 2.8994,0 l 3.95985,-3.95968 c -0.24348,-0.63753 -0.31717,-1.3327 -0.16019,-2.00866 z m -5.24775,5.28598 c -0.42289,0 -0.76891,-0.346 -0.76891,-0.76888 0,-0.42608 0.3428,-0.76886 0.76891,-0.76886 0.42609,0 0.76891,0.34278 0.76891,0.76886 0,0.42288 -0.34282,0.76888 -0.76891,0.76888 z"
       id="path2" />
  </g>
</svg>
